<?xml version="1.0" encoding="UTF-8" standalone="no"?>
<svg
   version="1.0"
   width="1024.000000pt"
   height="1024.000000pt"
   viewBox="0 0 1024.000000 1024.000000"
   preserveAspectRatio="xMidYMid meet"
   id="svg9"
   sodipodi:docname="logo.svg"
   inkscape:version="1.4 (e7c3feb100, 2024-10-09)"
   xmlns:inkscape="http://www.inkscape.org/namespaces/inkscape"
   xmlns:sodipodi="http://sodipodi.sourceforge.net/DTD/sodipodi-0.dtd"
   xmlns="http://www.w3.org/2000/svg"
   xmlns:svg="http://www.w3.org/2000/svg">
  <defs
     id="defs9" />
  <sodipodi:namedview
     id="namedview9"
     pagecolor="#ffffff"
     bordercolor="#000000"
     borderopacity="0.25"
     inkscape:showpageshadow="2"
     inkscape:pageopacity="0.0"
     inkscape:pagecheckerboard="0"
     inkscape:deskcolor="#d1d1d1"
     inkscape:document-units="pt"
     inkscape:zoom="0.5690918"
     inkscape:cx="806.54826"
     inkscape:cy="557.90647"
     inkscape:window-width="1920"
     inkscape:window-height="995"
     inkscape:window-x="0"
     inkscape:window-y="0"
     inkscape:window-maximized="1"
     inkscape:current-layer="svg9"
     showguides="true">
    <sodipodi:guide
       position="960.11322,528.45816"
       orientation="0,-1"
       id="guide1"
       inkscape:locked="false" />
  </sodipodi:namedview>
  <g
     id="g6"
     transform="matrix(1.7896916,0,0,1.7896916,-376.90361,-232.78001)">
    <g
       transform="matrix(0.1,0,0,-0.1,0,1024)"
       fill="#000000"
       stroke="none"
       id="g9">
      <path
         id="path1"
         d="m 5151.1816,9901.9727 c -86.3125,3.0312 -176.6865,2.0263 -271.1865,-2.9737 -706,-37 -1394.999,-322.997 -1983.999,-821.997 -193,-164 -361.999,-356.0069 -513.999,-587.0069 -42,-63 -120.9903,-166.9951 -174.9903,-229.9951 -532,-620 -812.0078,-1213.9951 -913.0078,-1939.9951 -26,-181 -25.9961,-686 -0.9961,-855 89,-593 299.9942,-1114.0078 638.9942,-1573.0078 151,-205 440.0078,-502.9951 643.0078,-664.9951 118,-94 293.998,-217.0069 412.998,-287.0069 39,-23 71.9971,-42.9892 71.9971,-43.9892 0,-2 -21.999,-16.9991 -48.999,-33.9991 -147,-96 -198.9961,-199.0019 -240.9961,-487.0019 -27,-180 -38.0059,-564.0039 -21.0059,-704.0039 l 11.9971,-96.0059 L 2693.9941,1465 c -83,-137 -185.0009,-345 -221.0009,-450 -25,-72 -27.9971,-93 -26.9971,-210 0,-115 3.0078,-139.99512 28.0078,-214.99512 34,-103 94.9951,-251.00097 109.9951,-266.00097 8,-9 62.0059,-10.00293 201.0059,-3.00293 278,12 899.9902,26.99902 1374.9902,33.99902 835,12 1279,28.99512 1680,64.99512 113,10 208.0069,16.01172 212.0069,12.01172 3,-4 8.0048,-20.00196 10.0048,-37.00196 2,-16 7.9932,-29.01172 12.9932,-27.01172 6,1 85.9932,27.01172 177.9932,57.01172 463,151 1140.0117,275.99512 1812.0117,334.99512 202,17 192.9902,14.00684 204.9902,62.00684 7,23 9.0098,62.99218 5.0098,91.99218 -8,64 -48.002,215.99808 -82.002,307.99808 -22,63 -24.0078,75.0009 -13.0078,116.0009 46,183 -3.9951,830.0069 -94.9951,1232.0069 -44,196 -117.999,362.999 -213.999,483.999 -56,71 -220.999,210.9961 -318.999,270.9961 -1,1 59.996,65.0059 135.996,141.0059 368,369 657.9952,839.9892 829.9952,1348.9892 144,426 203.0117,932 162.0117,1380 -63,683 -327.9981,1331.0029 -772.9981,1893.0029 -107,135 -288.0009,327.0069 -356.0009,377.0069 -31,23 -55.0127,56.9951 -98.0127,139.9951 -61,116 -203.9971,339.0049 -266.9971,415.0049 -122,148 -335.9961,337.998 -480.9961,427.998 -221,136 -500,241.9922 -720,271.9922 -58,8 -116,24 -165,45 -187.5,82.5 -409.8809,127.8838 -668.8184,136.9776 z m 1653.5743,-614.0918 c -2.5,6.625 19.7441,-9.3868 65.2441,-43.8868 221,-168 402.0029,-389.999 528.0029,-648.999 C 7478.0029,8431.9951 7544,8246 7620,7975 c 23,-82 56.9961,-204.0039 75.9961,-269.0039 19,-66 32,-121.0029 30,-123.0029 -2,-3 -15.9961,33.0136 -30.9961,79.0136 -16,46 -63,174.9883 -105,287.9883 -236,626 -417.9971,950.0108 -701.9971,1246.0108 -53.5,56 -80.747,85.25 -83.247,91.875 z M 7057.998,8530 c 4,0 26.003,-24.002 48.003,-52.002 23,-29 59.0058,-88.9931 81.0058,-132.9931 42,-84 112.9981,-265.0069 112.9981,-287.0069 0,-7 -35.999,58.9971 -78.999,146.9971 -43,88 -97.9991,197.0029 -123.9991,243.0029 -25,45 -43.0088,82.002 -39.0088,82.002 z m -653.9941,-70.0049 c 3,0 26.002,-30.0019 52.002,-67.0019 56,-77 153.999,-251.9922 153.999,-271.9922 0,-8 -32.001,40.999 -71.001,108.999 -39,69 -82.998,143 -97.998,165 -37,53 -43.002,64.9951 -37.002,64.9951 z m -472.998,-30 c 0,13 34.9892,-44 73.9892,-120 23,-47 44.999,-95.9951 48.999,-109.9951 4,-14 -22.9931,31.0049 -57.9931,100.0049 -36,69 -65.9951,126.9902 -64.9951,129.9902 z m 738.999,-3.999 c 1,11 48.9922,-43.9961 106.9922,-120.9961 40,-53 129.9961,-216.0049 105.9961,-190.0049 -6,6 -42.9981,60 -82.9981,120 -40,61 -86.001,126.001 -101.001,146.001 -16,20 -28.9892,41 -28.9892,45 z m -907.2803,-8.5107 c 0.4453,0.4375 1.5313,-0.3653 3.2813,-2.4903 14,-16 41.9882,-64 62.9882,-105 39,-76 104.0088,-230.9902 99.0088,-234.9902 -2,-2 -44.0097,80.999 -95.0097,183.999 -45.5,91.875 -73.3858,155.419 -70.2686,158.4815 z M 6887.0068,8410 c 6,0 35.9952,-32.9971 64.9952,-71.9971 58,-78 97.998,-140.0029 97.998,-153.0029 0,-4 -30.0059,35.001 -66.0059,86.001 -36,52 -74.997,103.997 -86.997,116.997 -11,12 -15.9903,22.002 -9.9903,22.002 z m -817.0019,-10.0049 c 11,-14 51.9922,-88.9922 91.9922,-166.9922 40,-78 69.998,-143.997 67.998,-146.997 -3,-2 -44.9883,72.9921 -92.9883,166.9921 -48,95 -79.0019,160.9971 -67.0019,146.9971 z M 4159.9951,8262.0068 c 3,-4 14.0088,-32.0068 24.0088,-62.0068 31,-96 144.001,-311.9951 206.001,-394.9951 84,-112 215.9951,-252.0088 304.9951,-324.0088 72,-57 74.998,-61.9902 52.998,-69.9902 -13,-5 -69.998,-25.0108 -127.998,-46.0108 -58,-20 -138.9961,-53.9892 -180.9961,-73.9892 l -76.0107,-37.002 -35.9912,90 c -81,208 -137.0059,435.9981 -156.0059,637.9981 -13,132 -18.001,290.0048 -11.001,280.0048 z m 1252.7197,-160.9716 c 5.5313,-8.5313 19.7784,-52.7813 45.2784,-142.0313 61,-207 133,-606.0059 120,-666.0059 -2,-10 -11.9873,42.9971 -21.9873,116.9971 -23,175 -66.0059,392.0039 -111.0059,554.0039 -19,70 -34.9951,131.0039 -34.9951,134.0039 0,4.75 0.8662,5.876 2.7099,3.0323 z m -2496.7089,-91.0401 c 1,0 0,-52.9971 -3.003,-116.9971 -12,-259 44.9912,-533.997 170.9912,-821.997 26,-57 46.0108,-104.9961 46.0108,-105.9961 0,-1 -42.0069,13 -92.0069,30 -51,18 -113.9951,34.9941 -139.9951,38.9941 -44,7 -48.0078,10.0039 -58.0078,44.0039 -46,161 -49.9902,452.9922 -9.9902,646.9922 18,83 78.001,285 86.001,285 z m 1842.4511,-18.4424 c 0.1055,1.1836 1.541,-0.1806 4.541,-4.5556 7,-11 35.0069,-52.9951 62.0069,-94.9951 28,-42 106.9971,-148.9971 176.9971,-236.9971 L 5130,7495 l -41.001,-12.9932 c -22,-8 -45.0019,-12.0088 -52.0019,-9.0088 -12,5 -53.0039,73.9971 -164.0039,281.9971 -50.75,95.375 -115.2744,228.2725 -114.5362,236.5576 z m -929.458,-126.5478 c 5,-11 16.001,-47.0098 26.001,-80.0098 47,-162 223.9951,-442.9892 349.9951,-553.9892 21,-18 35.999,-34.0098 33.999,-35.0098 -2,-2 -43.999,-23.999 -93.999,-48.999 -100,-52 -229.9951,-145.9922 -229.9951,-166.9922 0,-20 58.0029,-28.999 108.0029,-18.999 59,13 107.9991,34.9912 213.9991,95.9912 50,29 95.9931,52.998 102.9931,52.998 6,0 24.001,-6.9961 41.001,-15.9961 l 30,-15 -72.9932,-48.0029 c -75,-49 -157.997,-131.9971 -191.997,-191.9971 -17,-29 -11,-26.0029 45,26.9971 79,74 129.9892,109.0039 238.9892,164.0039 116,58 174,78 315,105 110,21 114.999,22.9941 63.999,23.9941 -63,1 -234.9961,-30.9931 -315.9961,-57.9931 l -52.0019,-17.0069 -18.0029,45 c -10,25 -18.9912,49.0127 -20.9912,53.0127 -2,5 2.997,7.9981 11.997,7.9981 21,0 219.9951,94.9883 319.9951,152.9883 l 78.9991,46.0107 56.0009,-37.998 c 74,-50 144,-85 210,-105 96,-28 97.0039,-28 29.0039,90 -33,58 -58.997,105.9882 -56.997,107.9882 2,2 27.0049,6.0049 55.0049,10.0049 l 51.9873,6.0059 55.0048,-72.0117 c 99,-133 169.9961,-241.9971 210.9961,-326.9971 36,-76 41.0039,-93.9932 44.0039,-177.9932 5,-108 -12.999,-432.0078 -33.999,-613.0078 -40,-347 -123.9941,-682.9961 -233.9941,-930.9961 -47,-107 -127.9981,-256.0058 -157.9981,-291.0058 -10,-12 -11.0029,-17.9883 -3.0029,-17.9883 25,0 199.9941,188 263.9941,285 61,93 175.9971,308.9883 191.9971,362.9883 14,49 15.0108,12.0107 1.0108,-43.9893 -19,-72 -56.0108,-252.999 -91.0108,-438.999 -14,-77 -30.9912,-152.0108 -35.9912,-166.0108 -23,-59 -370.0059,-246.9882 -756.0059,-407.9882 -447,-186 -591.0048,-234.0049 -715.0048,-235.0049 -72,-1 -77.9883,1.0039 -107.9883,29.0039 -18,17 -68.0059,80.998 -111.0059,142.998 -44,62 -128.0058,164.9951 -186.0058,229.9951 -196,217 -290.9903,345.9991 -369.9903,498.9991 -89,172 -120.998,285.0097 -157.998,545.0097 -35,246 -78.0049,436.9922 -145.0049,631.9922 -31,93 -37.0059,126.0059 -21.0059,126.0059 5,0 15.0127,1.9951 23.0127,4.9951 10,4 16.9864,-13 25.9864,-60 7,-37 26.0117,-95.9971 42.0117,-131.9971 29,-64 107.9971,-177.999 116.9971,-168.999 2,2 -7.0059,26.9902 -21.0059,54.9902 -42,82 -62.9932,200.0127 -57.9932,323.0127 2,47 36.9942,67.9981 113.9942,67.9981 73,0 80.0029,-7.0049 63.0029,-55.0049 -42,-119 9.9961,-326.9961 105.9961,-420.9961 21,-21 39.0088,-41.0039 39.0088,-44.0039 0,-10 -48.0049,-30 -70.0049,-30 -11,0 -39.999,10.002 -63.999,22.002 -35,17 -49.9981,19.0009 -67.9981,11.0009 -22,-9 -20.0097,-10.9961 24.9903,-30.9961 43,-19 48.0009,-24.0039 41.0009,-44.0039 -7,-23 -5.9961,-22.999 14.0039,-3.999 13,11 46.004,21.001 89.004,26.001 37,5 86.999,15.9902 108.999,24.9902 38,16 43,21.999 60,78.999 20,63 25.001,170.0108 11.001,241.0108 L 3390,6494.9951 3405.9961,6460 c 9,-19 20.0088,-37.0049 24.0088,-40.0049 4,-3 16.9892,-20.9902 28.9892,-39.9902 11,-19 21.0059,-28.0098 21.0059,-20.0098 0,22 -38.9961,149.999 -60.9961,198.999 l -20.0098,43.0079 42.0118,-36.0059 c 82,-70 52.9882,-22.9981 -42.0118,67.0019 -159,153 -259.9912,200.0059 -425.9912,201.0059 -95,1 -124.999,-5.0059 -108.999,-21.0059 3,-4 33.9941,-9.0009 68.9941,-11.0009 94,-6 88.9952,-18.001 -10.0048,-26.001 -48,-3 -107.9864,-8.9932 -130.9864,-12.9932 l -44.0039,-6.0058 38.9942,-16.9922 37.998,-16.0108 -33.999,-6.9873 c -19,-4 -37.9971,-4 -41.9971,0 -14,17 -80,271.9981 -90,352.9981 -11,88 -3.999,325.9922 11.001,376.9922 7,22 7.9941,16.0009 8.9941,-33.9991 1,-81 24.0108,-185.0048 61.0108,-280.0048 16,-42 27.9971,-77.9991 26.9971,-78.9991 -1,-1 -22.0069,1.0059 -47.0069,6.0059 -25,5 -46.999,5.999 -48.999,3.999 -6,-6 27.0039,-31.0049 74.0039,-55.0049 22,-12 65.9941,-48.998 98.9941,-82.998 32,-33 60.0069,-55.9951 62.0069,-49.9951 3,6 -4,34.0029 -15,63.0029 -12,28 -18,50.9912 -15,50.9912 3,0 75.997,-34.9883 161.997,-77.9883 168,-83 274.001,-149.0117 356.001,-222.0117 49,-44 50.001,-43.9902 26.001,-9.9902 -13,19 -36.002,49.998 -52.002,67.998 -15,18 -37.0029,49.9971 -48.0029,71.9971 l -19.9951,38.9941 42.9932,3.003 42.0117,3.999 -52.002,24.0088 c -50,22 -54.0029,27.9892 -78.0029,88.9892 -64,168 -119.9941,410.0059 -128.9941,561.0059 l -6.0059,85.0049 14.0039,-60 c 36,-151 132.9981,-376.0049 217.9981,-505.0049 59,-89 160.997,-195.0059 236.997,-246.0059 36,-24 66.9942,-41.9902 68.9942,-39.9902 2,2 -10.9932,31.9951 -27.9932,64.9951 l -30,60.9961 94.9951,-65.9912 c 52,-36 95.0098,-64.0107 95.0098,-61.0107 0,2 -14,34.0048 -30,70.0048 -27,60 -84.0108,256.0088 -76.0108,264.0088 1,2 19.0049,-30.0009 40.0049,-71.0009 43,-87 96.999,-159.0088 153.999,-204.0088 l 40.0049,-31.9922 -29.0039,107.9883 c -51,195 -60.9951,289.0068 -64.9951,647.0068 -2,195 0,322.0049 4.9951,310.0049 z m 2386.0987,-401.4404 c 0.7812,2.625 2.4072,-0.069 4.9072,-8.5694 5,-16 11.9892,-70 13.9892,-120 5,-85 5.001,-85.9902 -3.999,-24.9902 -12,90 -17.2412,145.6846 -14.8974,153.5596 z m 406.2744,-299.4434 c 33.875,1.125 67.1299,-7.6182 105.6299,-26.1182 55,-26 101.9931,-81.0088 147.9931,-174.0088 62,-128 77.999,-206.9941 78.999,-383.9941 1,-153 1,-156.0068 -30,-227.0068 -55,-126 -137.9931,-237.9981 -282.9931,-382.9981 -208,-208 -312.999,-266.9922 -453.999,-256.9922 -40,2 -79.0079,8.001 -88.0079,11.001 -20,9 -19.999,3.9922 -48.999,-313.0078 -16,-180 -20.9883,-289.001 -17.9883,-476.001 l 2.9883,-241.9922 -180,-60 c -932,-315 -1284.9902,-432.0029 -1314.9902,-438.0029 -31,-6 -28,-2.001 30,33.999 36,22 113.9941,79.002 173.9941,127.002 112,90 457.999,425.999 558.999,543.999 l 56.001,64.9951 -34.9951,-116.9971 c -42,-142 -93.0059,-272.0009 -141.0059,-356.0009 l -34.9951,-63.003 44.0039,27.0118 c 184,115 370.9952,343.0009 499.9952,611.0009 33,67 61.0029,122.9883 63.0029,122.9883 6,0 -53.0098,-215.9902 -80.0098,-294.9902 -15,-43 -44.9912,-116.0039 -65.9912,-164.0039 l -39.0088,-86.001 31.0108,34.9951 c 88,101 232.9873,358.0098 306.9873,545.0098 119,301 191.0107,572.9951 271.0107,1024.9951 52,291 56.001,334.9971 56.001,626.9971 0,155 3.0019,279.0097 7.0019,275.0097 3,-4 10,-70.0117 15,-147.0117 6,-93 11.9883,-133 17.9883,-120 28,66 167.0117,210.0059 237.0117,246.0059 41,21 75.4903,31.9951 109.3653,33.1201 z m -1444.834,-34.9365 c -117.9297,0.1855 -288.7842,-5.4297 -347.5342,-14.1797 -234,-37 -382.0029,-97.001 -468.0029,-191.001 -28,-30 -66.0049,-82.9971 -85.0049,-116.9971 -34,-62 -89.9941,-212.0107 -83.9941,-226.0107 2,-4 49.9921,44.0068 106.9921,107.0068 137,151 251.0059,236.9971 351.0059,266.9971 24,7 23.9941,6.999 8.9941,-11.001 -43,-50 -53.9941,-86.9941 -53.9941,-188.9941 0,-89 3.9932,-106.0059 27.9932,-156.0059 31,-63 99.0097,-132.0019 155.0097,-157.0019 l 37.002,-15.9961 L 4770,6412.9932 c -36,-9 -102.9932,-11.9864 -192.9932,-10.9864 -75,2 -137.0068,0 -137.0068,-3.0029 0,-8 53.9951,-18.999 94.9951,-18.999 18,0 43.001,-7.999 56.001,-18.999 19,-16 25.0019,-16.0098 37.0019,-5.0098 16,17 128.0069,19.0029 137.0069,3.0029 5,-7 14.001,-2.9951 26.001,10.0049 23,25 93.0009,45.002 131.0009,37.002 19,-4 27.9932,-1.002 27.9932,7.998 0,19 32.9932,45.9961 57.9932,45.9961 11,0 24.0078,4.9971 28.0078,11.9971 5,8 0,9.0097 -15,5.0097 -21,-5 -20.9942,-4.0136 6.0058,40.9864 90,154 102.9873,292.0058 36.9873,411.0058 -13,24 -22.9912,46.0069 -20.9912,47.0069 8,9 112.9951,-64.001 124.9951,-86.001 16,-31 9.0069,-135.999 -12.9931,-198.999 -28,-77 -12.0078,-80.0059 31.9922,-6.0059 36,62 73.0019,139 142.0019,300 12,27 27.003,52.001 33.003,56.001 6,4 -41.0079,10.9961 -103.0079,15.9961 -63,5 -106.9941,12 -98.9941,15 8,3 40.9932,12.998 72.9932,22.998 32,10 60.0029,22.0117 63.0029,27.0117 3,4.875 -48.7002,7.0664 -119.458,7.1778 z M 6654.2432,7009.624 c -25.25,0.875 -52.7432,-7.6201 -84.2432,-25.6201 -25,-14 -60.0029,-39.9971 -78.0029,-56.9971 -72,-69 -181.9912,-235.0078 -215.9912,-328.0078 -17,-44 -17.0049,-47.9931 4.9951,-117.9931 30,-101 23.001,-155.002 -33.999,-262.002 -45,-82 -75.9991,-174.0059 -63.9991,-186.0059 10,-9 121.9991,34.004 228.9991,89.004 111,56 199.0019,140.0009 217.0019,206.0009 16,54 12.9902,139.9912 -5.0098,200.9912 -19,65 -80.998,136.0039 -142.998,164.0039 l -43.9893,18.9991 28.9893,24.0088 c 145,120 180.0098,132.9961 230.0098,90.9961 61,-52 112.9902,-184.9971 114.9902,-296.9971 1,-54 1.001,-54.0098 11.001,-20.0098 6,20 8.0097,88.0049 5.0097,160.0049 -7,169 -34.0117,248.9941 -102.0117,308.9941 -22.5,19.5 -45.5019,29.7549 -70.7519,30.6299 z m 103.374,-694.5263 c -2.8711,-0.8716 -19.8047,-21.8409 -37.6172,-48.0909 -19,-29 -68.0068,-85.0097 -107.0068,-125.0097 -66,-66 -94,-105.9903 -60,-84.9903 68,43 104.0019,74.9991 142.0019,123.9991 38,52 73.0029,123.9892 63.0029,133.9892 -0.062,0.125 -0.1894,0.1607 -0.3808,0.1026 z M 3492.5537,6164.5996 c -0.6562,-0.5625 -1.1777,-3.1025 -1.5527,-7.6025 -2,-34 -100.0069,-211.9912 -152.0069,-275.9912 -28,-35 -53.0009,-77.0098 -56.0009,-95.0098 -7,-46 25.0107,-104.9902 106.0107,-189.9902 36,-39 78.999,-87.0108 93.999,-106.0108 25,-32 26.9971,-32.9971 26.9971,-11.9971 0,29 -19.001,66 -86.001,165 -29,44 -63,99.9991 -75,123.9991 l -22.0019,45 45.9961,45.9961 c 80,81 138.0136,219.0127 124.0136,293.0127 -1.875,10 -3.3593,14.5312 -4.4531,13.5937 z m 132.041,-510.0439 c -9.0358,-0.01 -14.5898,-1.7705 -14.5898,-5.5518 0,-18 70.999,-42.0107 93.999,-31.0107 21,10 21.001,10.0136 -3.999,19.0136 -28.2188,11.1563 -58.1599,17.563 -75.4102,17.5489 z m -27.5976,-451.5528 7.0019,-29.0039 c 11,-45 19.9971,-47.9941 71.9971,-23.9941 56,25 49.0078,35.9922 -31.9922,46.9922 z m 278.7304,-15.8935 c -38.5002,0.083 -73.1367,-2.0733 -98.7304,-7.1045 -20,-4 -38.9971,-9.0117 -41.9971,-12.0117 -3,-3 59.0068,-7.9864 137.0068,-10.9864 79,-4 177.9864,-13.0019 220.9864,-22.0019 91,-17 107.0068,-18.0059 107.0068,-6.0059 0,28.9063 -186.7717,57.8144 -324.2725,58.1104 z m -151.875,-189.0235 c -2.4433,-0.012 -3.8525,-0.3339 -3.8525,-1.0839 0,-2 20.9961,-18.002 45.9961,-37.002 43,-30 49.9971,-31.9971 101.9971,-26.9971 32,4 73.0068,11.9991 92.0068,18.9991 l 34.9951,11.997 -34.9951,7.002 c -19,4 -71.0049,11.0039 -115.0049,14.0039 -44,3 -89.9971,8.001 -101.9971,11.001 -8.125,1.25 -15.0732,2.0996 -19.1455,2.08 z M 6130.0049,3857.998 c 14,0 18.9931,-1.9951 12.9931,-4.9951 -7,-2 -19.0048,-2 -25.0048,0 -7,3 -1.9883,4.9951 12.0117,4.9951 z M 6075,3846.9971 c 26,0 25.9951,9e-4 4.9951,-3.9991 -362,-62 -717.001,-157.9921 -1001.001,-271.9921 -122,-48 -154.999,-63.0049 -393.999,-175.0049 -66,-31 -111.9971,-49.9971 -101.9971,-41.9971 35,27 413.9971,200.0029 566.9971,258.0029 191,73 404.0098,134.9961 620.0098,180.9961 202,43 265.9951,54.9942 304.9951,53.9942 z m 270,-198.003 c 6,0 -1,-5.0009 -15,-11.0009 -206,-92 -567.002,-280.9912 -697.002,-365.9912 -13,-8 -22.998,-12.0088 -22.998,-9.0088 0,29 685,389.0009 735,386.0009 z m 812.2559,-520.122 c 5.25,0.875 3.2402,-1.3741 -1.2598,-5.8741 -4,-4 -27.002,-14.9941 -52.002,-23.9941 -76,-29 -225.9951,-117.0019 -319.9951,-187.0019 -310,-233 -570.0058,-639.004 -681.0058,-1064.004 -15,-54 -28,-95.999 -30,-93.999 -7,7 37.0107,163.999 76.0107,273.999 134,375 362.9912,700.003 635.9912,903.003 101,75 256,161.9951 330,184.9951 24.5,8 37.0108,12.001 42.2608,12.876 z m -2210.5079,-40.752 c 12.5,1.125 12.7569,-1.1191 -1.7431,-7.1191 -29,-12 -224.0049,-47.9961 -325.0049,-60.9961 -120,-14 -298.0049,-12.0049 -415.0049,4.9951 -96,15 -200.9971,42.0059 -191.9971,51.0059 2,3 17.0069,-0.01 32.0069,-6.0059 148,-56 567.9951,-54.0049 829.9951,4.9951 34.5,7.5 59.248,12 71.748,13.125 z m -1238.7451,-12.1142 c 2,-2 -6.0068,-21.0079 -17.0068,-43.0079 -11,-21 -19.9912,-34.996 -20.9912,-30.996 0,12 32.998,78.0039 37.998,74.0039 z m 1465.752,-297.627 c 4.25,3.125 6.2402,2.6231 6.2402,-1.3769 0,-2 -10.0019,-11.9981 -22.0019,-22.9981 l -22.9981,-18.999 18.999,22.998 c 9,10.5 15.5108,17.251 19.7608,20.376 z m -45.249,-40.9131 c 0.625,-0.6562 -1.001,-3.4707 -3.501,-7.4707 -17,-27 -445.0049,-341.001 -445.0049,-326.001 0,2 55.0029,43 123.0029,90 67,47 166.9971,122 221.9971,165 79.5,63 101.6309,80.4405 103.5059,78.4717 z M 3157.002,2519.9951 c 3,0 2.0039,-10.0019 -0.9961,-22.0019 -3,-13 -20.0059,-87 -36.0059,-165 -30,-140 -68.0049,-262.9903 -115.0049,-369.9903 -39,-88 -34.9902,-60.0097 5.0098,39.9903 21,50 53.001,153.0068 71.001,227.0068 56,232 70.9961,289.9951 75.9961,289.9951 z m 2652.9931,-101.001 c 0,2 2.0098,2.0039 5.0098,-0.9961 3,-2 -2.0088,-41.0048 -9.0088,-85.0048 -64,-360 -33,-826.9922 75,-1141.9922 11,-30 17,-56.0039 15,-59.0039 -9,-8 -77.001,225.0078 -101.001,343.0078 -53,265 -53.9951,582 -4.9951,840 11,55 19.9951,101.9892 19.9951,103.9892 z m -1170,-38.9941 c 3,0 -5.999,-8.999 -18.999,-18.999 -31,-23 -89.9961,-57.0039 -75.9961,-44.0039 13,14 87.9951,63.0029 94.9951,63.0029 z m -112.998,-70.0049 c 2,0 3.0029,-1.999 3.0029,-3.999 0,-2 -18.0049,-15 -40.0049,-30 -22,-14 -39.9902,-24.002 -39.9902,-22.002 0,5 70.9922,56.001 76.9922,56.001 z m 2168.6279,-141.123 c 1.125,-2.125 -8.123,-17.8789 -28.623,-45.8789 -92,-127 -207.0079,-365.9883 -283.0079,-587.9883 -43,-123 -112.9902,-385.0088 -114.9902,-429.0088 -1,-15 -3.0059,-15.9951 -6.0059,-4.9951 -5,20 39.003,224.0039 78.003,359.0039 74,256 199.0058,516.9931 321.0058,672.9931 21,26.5 32.4932,37.9991 33.6182,35.8741 z M 6066.0059,1727.002 c 3,-3 3.9961,-11.9991 0.9961,-18.9991 -3,-8 -6.0059,-5.0088 -6.0059,5.9912 -1,11 2.0098,17.0079 5.0098,13.0079 z m 1869.624,-6.4893 c 1.166,0.3984 7.8691,-13.7578 18.3691,-35.5078 13,-27 34.999,-84.0098 48.999,-125.0098 31,-89 97.0059,-331.9912 96.0059,-350.9912 0,-8 -16.0098,38.001 -35.0098,101.001 -19,63 -54.9951,178 -79.9951,255 -36.875,113.75 -50.3125,154.8437 -48.3691,155.5078 z M 6056.001,1686.9971 c 3,-3 3.9961,-11.9991 0.9961,-18.9991 -3,-8 -5.9912,-4.9941 -5.9912,6.0059 -1,11 1.9951,16.9932 4.9951,12.9932 z m -8.9942,-53.9942 c 2,-7 2,-21 0,-30 -3,-10 -5.0097,-4.0029 -5.0097,11.9971 0,17 2.0097,24.0029 5.0097,18.0029 z M 5481.123,1375.249 c 2.125,0.5 15.8731,-21.2441 39.8731,-65.2441 23,-41 61.9971,-104.0098 86.9971,-140.0098 47,-66 214.0068,-239.98924 287.0068,-298.98924 22,-18 33.0049,-29.00488 25.0049,-25.00488 -34,17 -155.0049,122.00097 -220.0049,191.00102 -74,80 -139.9941,173 -188.9941,270 -22.5,45 -32.0079,67.747 -29.8829,68.247 z m 772.251,-301.2451 c 0.875,2.25 2.1328,1.9893 3.6328,-1.0107 2,-7 2,-18.9903 0,-24.9903 -3,-7 -5.0097,-2.0029 -5.0097,11.9971 0,7 0.5019,11.7539 1.3769,14.0039 z m -86.3672,-367.00195 c 2,-2 -11.0039,-54.00488 -29.0039,-115.00488 -17,-61 -34.0058,-109.99219 -36.0058,-106.99219 -2,2 11.0078,53.99024 28.0078,114.99024 18,61 35.0019,109.00683 37.0019,107.00683 z" />
    </g>
    <path
       style="fill:#ffffff;stroke-width:1.75719"
       d="m 505.77053,775.35822 c -1.95104,-2.17452 -8.3709,-10.37294 -14.26634,-18.2187 -5.89545,-7.84578 -18.80791,-23.66045 -28.69437,-35.14372 -45.42353,-52.76015 -56.89724,-75.44687 -65.78008,-130.06551 -5.96306,-36.6656 -10.39528,-57.00209 -17.65539,-81.00875 -6.54977,-21.65779 -6.93961,-23.91777 -3.95406,-22.92258 1.11008,0.37002 3.09857,4.89382 4.41887,10.05287 3.68984,14.41802 18.13509,39.38247 21.08252,36.43503 0.59072,-0.59071 -0.54485,-4.85408 -2.52349,-9.47414 -7.12104,-16.62732 -9.6762,-42.12324 -4.64038,-46.3026 1.53119,-1.27078 6.47328,-2.35601 10.98242,-2.41164 l 8.19842,-0.10114 -0.61935,15.41168 c -0.73878,18.38338 3.91927,34.22005 13.28267,45.15908 3.18293,3.71853 5.78713,7.13609 5.78713,7.59457 0,2.34041 -8.32432,2.50652 -13.67036,0.2728 -11.26536,-4.70695 -19.25935,-1.60933 -9.2305,3.57677 2.93095,1.51566 5.32901,4.00614 5.32901,5.5344 0,1.97952 0.88436,2.39768 3.07507,1.45393 1.69129,-0.72858 8.21484,-2.43764 14.49678,-3.79789 6.28194,-1.36024 13.16163,-3.60881 15.2882,-4.99681 4.89745,-3.19655 7.51983,-12.57628 7.59269,-27.15748 l 0.0571,-11.42171 5.17702,6.15015 c 6.28192,7.46275 6.70537,4.88716 1.77985,-10.82586 -4.19761,-13.39088 -4.15775,-12.96301 -0.96034,-10.3094 1.41718,1.17616 3.5917,1.78285 4.83226,1.3482 1.34749,-0.47212 -3.39435,-6.19841 -11.77832,-14.22361 -14.69188,-14.06318 -16.43623,-17.94637 -3.18335,-7.08663 4.25993,3.49069 8.07671,6.01532 8.48173,5.6103 0.40503,-0.40503 -3.19661,-6.13123 -8.00364,-12.72489 -4.80703,-6.59366 -8.74005,-12.62649 -8.74005,-13.4063 0,-0.7798 2.56988,-1.7022 5.71085,-2.04976 l 5.71086,-0.63192 -5.26835,-2.23749 c -2.89759,-1.23062 -6.61867,-3.45952 -8.26907,-4.95312 -5.35769,-4.84864 -20.60502,-57.09631 -20.67355,-70.84156 -0.0122,-2.44189 3.43098,4.05903 7.75245,14.63717 10.37371,25.39286 20.01434,41.17997 34.3868,56.31044 13.19098,13.88667 26.33684,22.76502 26.33684,17.78718 0,-1.57505 -0.81856,-4.39321 -1.81901,-6.26258 -2.52022,-4.70906 -1.15246,-4.30997 9.25943,2.70181 4.98242,3.35536 9.39019,5.76942 9.79504,5.36458 0.40484,-0.40485 -1.72605,-7.54051 -4.73532,-15.85703 -7.15705,-19.77948 -6.88149,-21.60527 1.31184,-8.69187 6.06127,9.5531 19.21416,22.8157 20.92765,21.10221 0.36862,-0.36862 -1.36769,-8.84715 -3.85849,-18.84117 -5.49034,-22.02935 -8.01571,-50.65441 -7.88152,-89.33697 l 0.10057,-28.99357 3.13159,8.78593 c 7.18588,20.16057 21.57011,43.99599 38.23741,63.36141 l 10.51688,12.21935 -13.95254,7.81879 c -7.67391,4.30033 -17.17005,10.67406 -21.10253,14.16383 -9.33975,8.2883 -7.82688,11.1908 5.26702,10.10495 7.13539,-0.59172 14.22157,-3.1794 27.59199,-10.07582 13.37953,-6.90111 19.0094,-8.95633 21.96474,-8.01834 3.6929,1.17208 3.36566,1.67089 -4.62755,7.05384 -12.51199,8.42606 -30.83947,29.01077 -25.8296,29.01077 0.57142,0 6.30424,-4.40341 12.7396,-9.78536 14.93907,-12.49365 39.08194,-24.31969 59.20005,-28.99831 8.66763,-2.01572 17.34078,-4.41197 19.27369,-5.32498 6.20603,-2.93146 -21.88264,-0.16589 -35.92893,3.53751 -7.19703,1.89754 -13.64272,3.1057 -14.32376,2.6848 -0.68103,-0.42091 -2.06571,-3.13894 -3.07704,-6.04007 -1.48349,-4.25549 -1.35453,-5.27479 0.66733,-5.27479 1.37837,0 13.60063,-5.61306 27.16057,-12.47346 l 24.65444,-12.47347 8.8255,5.66331 c 16.43897,10.54885 36.83012,17.1841 36.83012,11.98445 0,-1.11519 -2.85908,-7.14015 -6.35352,-13.38879 -6.69288,-11.96799 -6.34086,-14.36685 2.11741,-14.42884 3.72064,-0.0273 14.19839,13.22502 30.34065,38.37494 14.8549,23.14418 16.15785,31.95492 12.51103,84.60115 -3.95458,57.08896 -13.23418,103.82496 -28.71052,144.59838 -5.09426,13.42117 -19.13892,41.87539 -24.1677,48.96331 -3.95827,5.57907 -4.1044,6.75749 -0.83795,6.75749 2.40186,0 21.727,-19.76724 30.40789,-31.10353 2.36877,-3.09338 9.37882,-14.55902 15.57785,-25.47919 6.19902,-10.92017 11.27464,-19.40362 11.27915,-18.85209 0.0145,1.77924 -14.06035,70.93098 -15.11413,74.25791 -2.59321,8.18694 -63.61262,39.78786 -122.74363,63.56683 -55.06779,22.14499 -78.39873,27.00178 -86.47422,18.00132 z m 23.65048,-70.16891 4.76346,-1.93865 -6.04742,-1.35297 c -8.53123,-1.90867 -33.48926,-3.98345 -33.48926,-2.78399 0,0.54896 2.96525,3.052 6.58945,5.5623 5.63604,3.90381 7.80704,4.41138 15.00487,3.50808 4.62849,-0.58086 10.55899,-1.92851 13.1789,-2.99477 z m 30.3985,-24.97065 c -3.53129,-4.25494 -31.8519,-7.75253 -54.18931,-6.69236 -12.2973,0.58365 -8.44875,3.49135 6.15015,4.64666 7.49001,0.59272 18.75796,1.73893 25.0399,2.54711 6.28194,0.80819 14.48378,1.57678 18.2263,1.70801 5.63136,0.19745 6.45432,-0.18351 4.77296,-2.20942 z m -67.89018,-1.34843 c 7.50703,-3.42041 6.04617,-4.9304 -7.38536,-7.63371 -5.96991,-1.20152 -6.3361,-0.74655 -4.60332,5.71929 1.18038,4.40458 5.13677,5.03636 11.98868,1.91442 z M 468.29,633.21649 c 0,-2.06984 -4.25355,-10.57023 -9.45233,-18.88975 -14.98944,-23.98732 -14.51932,-22.03556 -7.3306,-30.43398 9.53792,-11.14289 15.02575,-23.47528 15.02575,-33.76615 v -8.84705 l -6.63659,13.14572 c -3.65012,7.23015 -10.37136,18.57511 -14.93608,25.21103 -9.08646,13.20936 -9.83254,16.81441 -5.22441,25.24417 3.50068,6.40389 25.23506,31.98154 27.23637,32.05258 0.72484,0.0257 1.31789,-1.64673 1.31789,-3.71657 z m 27.23842,-17.32617 c 1.19097,-1.92705 -6.12671,-5.26827 -11.53814,-5.26827 -4.63975,0 -4.29282,3.26874 0.55369,5.2168 5.36057,2.15468 9.6721,2.17489 10.98445,0.0515 z M 643.21639,514.94513 c 2.85184,-1.48711 7.65822,-2.7087 10.68086,-2.71466 3.02262,-0.006 6.54843,-1.2793 7.83511,-2.82966 1.28669,-1.55035 4.23145,-3.53819 6.54394,-4.41738 2.78408,-1.05851 3.85363,-2.51291 3.16592,-4.30508 -0.57123,-1.4886 1.05932,-6.81506 3.62342,-11.83659 6.04753,-11.84339 7.66785,-32.11382 3.38617,-42.36135 -1.57301,-3.76474 -2.51643,-7.18856 -2.0965,-7.6085 1.63499,-1.63498 11.76257,7.55724 12.77631,11.59631 0.58957,2.34901 -0.22062,10.22712 -1.80038,17.50691 -5.14608,23.71373 0.0679,18.33111 17.01432,-17.56453 6.24665,-13.23158 10.90915,-24.50581 10.36114,-25.05383 -0.54803,-0.54803 -3.82987,-1.07523 -7.29301,-1.17157 -3.46311,-0.0963 -8.23167,-0.71518 -10.59679,-1.37521 -3.95367,-1.10335 -3.70584,-1.37814 3.07507,-3.40975 12.82886,-3.84362 8.4072,-5.58368 -14.15023,-5.56858 -52.90412,0.0354 -89.81739,10.06191 -106.23521,28.85587 -6.82484,7.81257 -19.19752,32.37555 -21.00751,41.70532 -1.05958,5.46175 0.29102,4.48063 19.78204,-14.37029 25.33866,-24.50649 44.12181,-36.73865 37.54555,-24.45078 -1.1599,2.1673 -2.18362,10.84394 -2.27494,19.28141 -0.1527,14.11022 0.25475,16.02144 5.07928,23.82494 2.88491,4.66625 8.55609,11.0093 12.60259,14.09566 9.35605,7.13611 7.9907,7.68867 -18.99802,7.68867 -20.50049,0 -27.96881,2.27355 -14.35307,4.36946 3.6242,0.55787 8.56628,1.60471 10.98241,2.32628 7.10882,2.12307 28.70411,0.73182 34.35153,-2.21307 z"
       id="path10"
       transform="scale(0.75)" />
    <path
       style="fill:#ffffff;stroke-width:1.75719"
       d="m 504.94402,774.47962 c -2.43031,-2.65774 -7.52034,-9.18129 -11.31116,-14.49678 -3.79082,-5.31549 -15.97034,-20.33943 -27.0656,-33.38653 -37.89101,-44.55668 -50.82548,-64.50181 -60.4116,-93.15546 -2.42042,-7.23486 -7.23256,-29.75968 -10.69363,-50.05518 -5.91236,-34.66968 -13.10701,-65.64069 -19.33871,-83.24796 -3.23488,-9.1399 -3.46182,-13.05835 -0.70303,-12.13875 1.11008,0.37002 3.09857,4.89382 4.41887,10.05287 2.97101,11.60922 11.72621,28.3119 17.70852,33.78332 5.15086,4.711 5.16765,4.88281 -1.28564,-13.1563 -2.01361,-5.62874 -4.13035,-16.31891 -4.70385,-23.75594 -1.2373,-16.04504 0.44863,-18.46586 12.97054,-18.62443 l 7.98694,-0.10114 0.21149,18.45045 c 0.18712,16.32424 0.78878,19.69995 5.22098,29.29306 2.75522,5.96343 6.90657,12.62482 9.22523,14.80308 2.31865,2.17826 4.21573,4.52115 4.21573,5.20642 0,2.69879 -7.90303,3.09487 -13.67036,0.68512 -11.26536,-4.70695 -19.25935,-1.60933 -9.2305,3.57677 2.93095,1.51566 5.32901,4.00614 5.32901,5.5344 0,1.96691 0.89833,2.40133 3.07507,1.48705 1.69129,-0.71036 8.89651,-2.69097 16.01161,-4.40134 7.11509,-1.71038 13.93014,-4.17901 15.14457,-5.48587 3.82092,-4.11171 6.18176,-13.90731 6.24721,-25.921 l 0.0632,-11.5988 4.252,5.20289 c 2.33861,2.86159 4.75553,4.69937 5.37093,4.08396 0.97913,-0.97912 -2.31507,-14.64957 -5.7155,-23.71846 -1.02499,-2.73363 -0.80121,-2.83432 1.72825,-0.77764 1.59813,1.29944 3.89942,2.03137 5.11397,1.62652 1.26794,-0.42264 -3.72442,-6.47944 -11.72392,-14.22361 -14.6512,-14.18357 -16.3065,-17.88842 -3.19046,-7.14081 4.25993,3.49069 8.07671,6.01532 8.48173,5.6103 0.40503,-0.40503 -3.19661,-6.13123 -8.00364,-12.72489 -4.80703,-6.59366 -8.74005,-12.67659 -8.74005,-13.51763 0,-0.84104 2.56988,-1.56082 5.71085,-1.59952 l 5.71086,-0.0703 -5.27156,-2.78535 c -2.89936,-1.53195 -6.62044,-3.96346 -8.26908,-5.40336 -5.32049,-4.64687 -20.60154,-56.94605 -20.67033,-70.74394 -0.0122,-2.44189 3.43098,4.05903 7.75245,14.63717 4.27589,10.46657 11.12208,24.69977 15.21375,31.62934 11.96616,20.26565 45.50989,51.51791 45.50989,42.40097 0,-1.53803 -0.81856,-4.3259 -1.81901,-6.19527 -2.52022,-4.70906 -1.15246,-4.30997 9.25943,2.70181 4.98242,3.35536 9.39019,5.76942 9.79504,5.36458 0.40484,-0.40485 -1.72605,-7.54051 -4.73532,-15.85703 -3.00927,-8.31653 -5.4714,-16.06144 -5.4714,-17.21093 0,-1.14949 3.2156,2.83135 7.14577,8.84631 6.46854,9.89981 18.89103,22.44905 20.56512,20.77496 0.36862,-0.36862 -1.36769,-8.84715 -3.85849,-18.84117 -5.49034,-22.02935 -8.01571,-50.65441 -7.88152,-89.33697 l 0.10057,-28.99357 3.13664,8.80647 c 6.65403,18.68198 23.93124,47.02129 39.62476,64.99534 l 9.2054,10.54311 -13.99301,7.82967 c -7.69615,4.30632 -17.2105,10.68495 -21.14298,14.17472 -9.33975,8.2883 -7.82688,11.1908 5.26702,10.10495 7.13539,-0.59172 14.22157,-3.1794 27.59199,-10.07582 13.02602,-6.71878 19.04872,-8.94384 21.82428,-8.06291 3.46797,1.10069 2.86741,1.92785 -6.299,8.67578 -13.75075,10.12273 -28.90609,27.4334 -24.01769,27.4334 0.57142,0 6.30424,-4.40341 12.7396,-9.78536 14.20744,-11.88179 38.40723,-24.0258 57.38751,-28.79839 7.73162,-1.94411 15.3946,-3.54689 17.02885,-3.56173 1.63425,-0.0148 3.53737,-0.94278 4.22914,-2.06209 1.7574,-2.84352 -19.20289,-0.68516 -36.07344,3.71463 -7.18206,1.87305 -13.62775,3.0536 -14.32377,2.62343 -0.69602,-0.43016 -2.09295,-3.15577 -3.10428,-6.0569 -1.48349,-4.25549 -1.35453,-5.27479 0.66733,-5.27479 1.37837,0 13.60063,-5.61306 27.16057,-12.47346 l 24.65444,-12.47347 8.8255,5.66331 c 16.43897,10.54885 36.83012,17.1841 36.83012,11.98445 0,-1.11519 -2.85908,-7.14015 -6.35352,-13.38879 -6.6946,-11.97105 -6.34146,-14.36694 2.1267,-14.42884 4.60175,-0.0336 27.68984,31.40526 37.21094,50.66988 7.93733,16.06011 8.66981,24.67883 5.81947,68.47425 -4.3008,66.08165 -15.72882,119.3696 -34.96612,163.04425 -5.67724,12.88912 -16.90826,33.68615 -19.77918,36.62606 -2.34764,2.40406 -2.00551,4.48083 0.73816,4.48083 2.49553,0 16.85923,-14.53625 28.13685,-28.47483 3.67889,-4.54696 11.75903,-17.1987 17.95585,-28.11497 6.19682,-10.91629 11.27063,-19.39654 11.27514,-18.84501 0.0145,1.77924 -14.06035,70.93098 -15.11413,74.25791 -2.59491,8.19232 -63.92449,39.96941 -122.70191,63.57632 -40.02182,16.07407 -59.5275,21.94549 -72.9059,21.94549 -8.68582,0 -10.6053,-0.64249 -14.43655,-4.83226 z m 24.28139,-69.08834 c 2.51233,-0.95519 4.20693,-2.09766 3.76578,-2.5388 -1.24182,-1.24182 -36.70632,-4.83676 -37.71955,-3.82353 -0.49344,0.49343 2.12959,2.99282 5.82894,5.5542 5.77816,4.00069 7.91213,4.50818 15.14153,3.60093 4.62849,-0.58086 10.47098,-1.83763 12.9833,-2.7928 z m 30.62302,-25.13776 c -2.96796,-3.57617 -21.21447,-6.62513 -40.88471,-6.83176 -22.22435,-0.23346 -27.47299,3.13895 -7.36762,4.73393 7.59134,0.60222 18.94221,1.7562 25.22415,2.56438 19.1674,2.46592 25.35782,2.3405 23.02818,-0.46655 z m -66.80421,-2.62945 c 4.53144,-3.66934 4.35809,-3.7996 -8.50025,-6.38755 -5.96991,-1.20152 -6.3361,-0.74655 -4.60332,5.71929 1.32382,4.93982 7.44303,5.25188 13.10357,0.66826 z M 468.29,633.75558 c 0,-1.77336 -4.00161,-9.81267 -8.89247,-17.86515 -15.57321,-25.64031 -15.07574,-23.60328 -7.83126,-32.06683 9.07576,-10.60298 14.96986,-24.06927 14.94938,-34.15493 l -0.0172,-8.45546 -4.31844,9.27591 c -2.37514,5.10174 -9.17515,16.77307 -15.11113,25.9363 -13.71694,21.1745 -13.56285,22.54482 4.99935,44.45979 7.47228,8.82193 14.17901,16.05221 14.90384,16.06725 0.72484,0.0151 1.31789,-1.42355 1.31789,-3.19688 z m 27.23842,-17.86526 c 1.19097,-1.92705 -6.12671,-5.26827 -11.53814,-5.26827 -4.63975,0 -4.29282,3.26874 0.55369,5.2168 5.36057,2.15468 9.6721,2.17489 10.98445,0.0515 z M 643.39555,514.70475 c 3.04541,-1.36681 7.89068,-2.4851 10.76724,-2.4851 2.87659,0 6.28289,-1.26848 7.56957,-2.81884 1.28669,-1.55035 4.07054,-3.477 6.18637,-4.28144 2.45198,-0.93224 3.83063,-2.9367 3.80195,-5.52779 -0.0247,-2.23586 2.01384,-8.8096 4.5302,-14.60831 5.35527,-12.34077 6.20564,-28.91822 1.99975,-38.98433 -1.46236,-3.49993 -2.31525,-6.70709 -1.89532,-7.12703 1.63499,-1.63498 11.76257,7.55724 12.77631,11.59631 0.58957,2.34901 -0.22062,10.22712 -1.80038,17.50691 -5.04739,23.25901 -0.60444,19.15939 14.89359,-13.74261 5.69042,-12.08065 11.08315,-23.26336 11.98387,-24.85045 2.19035,-3.85949 0.71484,-4.98796 -6.79501,-5.19687 -3.46311,-0.0963 -8.23167,-0.71518 -10.59679,-1.37521 -3.94785,-1.10173 -3.69173,-1.38237 3.1258,-3.42495 4.0843,-1.22369 6.96115,-2.97704 6.393,-3.89634 -1.36274,-2.20494 -37.93352,-2.11508 -57.93416,0.14235 -39.90607,4.5041 -63.30437,16.02669 -76.22176,37.53571 -6.27027,10.44076 -15.01336,32.54076 -13.48016,34.07396 0.4986,0.4986 9.81523,-7.72113 20.70364,-18.26607 18.00149,-17.43367 35.39885,-30.47684 37.64926,-28.22644 0.48566,0.48566 -0.066,2.65626 -1.22591,4.82357 -1.1599,2.1673 -2.18362,10.84394 -2.27494,19.28141 -0.1527,14.11022 0.25475,16.02144 5.07928,23.82494 2.88491,4.66625 8.55609,11.0093 12.60259,14.09566 9.35605,7.13611 7.9907,7.68867 -18.99802,7.68867 -20.50049,0 -27.96881,2.27355 -14.35307,4.36946 3.6242,0.55787 8.56628,1.63226 10.98241,2.38752 6.33187,1.97929 28.03991,0.39841 34.53069,-2.51469 z"
       id="path11"
       transform="scale(0.75)" />
    <path
       style="fill:#ffffff;stroke-width:1.75719"
       d="m 504.91873,774.47962 c -2.44423,-2.65774 -8.85956,-10.76276 -14.25629,-18.01115 -5.39673,-7.24839 -17.92134,-22.6677 -27.83245,-34.26512 -24.92005,-29.16003 -36.46349,-45.11642 -45.8722,-63.40874 -10.69369,-20.79056 -14.42186,-33.64141 -20.78907,-71.65888 -6.10157,-36.43141 -10.17073,-54.65007 -17.56103,-78.62522 -5.73871,-18.61713 -6.18506,-21.51077 -3.1627,-20.50332 1.12366,0.37455 3.33404,5.38253 4.91195,11.12884 3.43707,12.51684 11.16947,27.19602 17.2577,32.76204 5.08367,4.64762 5.10155,4.8223 -1.3526,-13.21922 -2.01361,-5.62874 -4.13744,-16.41087 -4.71961,-23.9603 -1.02711,-13.31928 -0.92497,-13.81373 3.4451,-16.6771 2.75193,-1.80314 7.04996,-2.73563 11.05046,-2.39749 l 6.54687,0.55338 0.18015,18.45045 c 0.19815,20.29365 3.16362,29.67813 13.43266,42.50871 2.85529,3.56753 5.19143,6.83593 5.19143,7.2631 0,2.35625 -8.16938,2.2559 -15.8319,-0.19448 -6.43332,-2.0573 -9.31548,-2.2894 -10.73994,-0.86494 -1.42446,1.42446 -0.47809,2.7065 3.52652,4.77736 3.01041,1.55675 5.47347,4.08084 5.47347,5.6091 0,1.96691 0.89833,2.40133 3.07507,1.48705 1.69129,-0.71036 8.80019,-2.66858 15.79755,-4.35158 6.99737,-1.68301 13.82843,-3.97788 15.18015,-5.0997 3.4,-2.82175 6.35021,-15.56319 6.42569,-27.75143 l 0.0632,-10.2043 4.252,5.20289 c 2.33861,2.86159 4.72917,4.72572 5.31236,4.14255 0.89835,-0.89836 -2.61392,-15.43876 -5.86525,-24.28152 -0.83704,-2.27652 -0.55924,-2.30227 2.03811,-0.18889 1.65399,1.34578 3.53842,1.9157 4.18764,1.26649 0.64921,-0.64922 -4.68756,-7.08776 -11.85949,-14.30789 -13.56526,-13.6564 -14.77819,-17.75887 -2.02242,-6.84042 4.03977,3.4579 7.34503,5.58915 7.34503,4.73612 0,-0.85303 -3.5583,-6.6042 -7.90734,-12.78038 -4.34903,-6.17617 -7.90733,-11.86572 -7.90733,-12.64344 0,-0.77773 2.56988,-1.42705 5.71085,-1.44295 l 5.71086,-0.0289 -7.02875,-3.93131 c -4.90251,-2.74207 -8.23279,-6.44949 -11.00898,-12.2557 -4.72527,-9.88256 -13.86415,-44.37331 -15.30376,-57.7574 l -1.01797,-9.4641 5.32659,13.17079 c 13.07155,32.32132 26.51421,53.38993 44.22481,69.31329 9.76366,8.77837 19.07318,14.48169 19.07318,11.68488 0,-0.92836 -0.77116,-3.71623 -1.7137,-6.19528 -0.94253,-2.47904 -1.3067,-4.50735 -0.80927,-4.50735 0.49743,0 4.98096,2.74529 9.96339,6.10066 4.98242,3.35536 9.35116,5.80846 9.70829,5.45133 0.35713,-0.35714 -1.77376,-7.51447 -4.73532,-15.9052 -2.96156,-8.39072 -5.38465,-16.17283 -5.38465,-17.29357 0,-1.12074 3.51242,3.19808 7.80539,9.59739 6.74718,10.05769 18.25005,21.72339 19.84626,20.12719 0.28734,-0.28735 -1.46023,-8.74971 -3.88348,-18.80526 -5.36579,-22.26587 -7.89844,-50.95096 -7.89613,-89.43213 l 0.002,-28.99357 5.82129,14.3523 c 7.07329,17.43912 21.19586,40.23867 35.52128,57.34575 l 10.65093,12.7191 -13.90752,7.79356 c -7.64915,4.28646 -17.18647,10.77061 -21.19406,14.40922 -6.11495,5.55196 -6.86272,6.91897 -4.65074,8.50206 5.50092,3.93693 19.29379,0.72116 37.37255,-8.71332 12.91595,-6.74025 18.68561,-8.86793 21.87593,-8.06721 4.21132,1.05697 4.11861,1.23973 -3.29634,6.49896 -10.57726,7.50214 -22.35745,18.98749 -25.38745,24.75203 -1.39699,2.65775 -2.10322,4.83226 -1.5694,4.83226 0.53382,0 6.28695,-4.4096 12.78472,-9.79911 6.49779,-5.38952 18.93076,-13.27886 27.62883,-17.53188 14.40724,-7.04458 38.96333,-14.84146 46.74281,-14.84146 1.72127,0 3.69348,-0.91242 4.3827,-2.02759 2.20146,-3.56206 -25.84003,0.37047 -47.08049,6.60253 -2.02854,0.59519 -3.85672,-0.8128 -5.71085,-4.39827 -3.37072,-6.51826 -3.38307,-7.20542 -0.12959,-7.20542 1.42864,0 13.69204,-5.61306 27.25198,-12.47346 l 24.65444,-12.47347 8.8255,5.66331 c 16.43897,10.54885 36.83012,17.1841 36.83012,11.98445 0,-1.11519 -2.85908,-7.14015 -6.35352,-13.38879 -6.68624,-11.95611 -6.33851,-14.36652 2.08152,-14.42884 4.70125,-0.0348 25.90152,28.53773 36.25704,48.86518 9.05275,17.77023 9.76094,25.06937 6.81855,70.27895 -5.44254,83.62408 -25.21724,156.88317 -53.35481,197.66287 -3.75644,5.44418 -2.76166,8.27362 1.8959,5.39245 8.09713,-5.00889 31.98259,-35.34918 42.51118,-53.99946 6.27297,-11.1119 11.60875,-20.00011 11.85727,-19.75158 0.50115,0.50115 -13.04603,68.56515 -14.66297,73.66996 -3.01851,9.52968 -67.44571,42.13841 -136.43527,69.05436 -30.54249,11.91603 -46.9545,16.46745 -59.37994,16.46745 -8.45343,0 -10.42508,-0.66838 -14.25444,-4.83226 z m 24.30668,-69.08834 c 2.51233,-0.95519 4.20693,-2.09766 3.76578,-2.5388 -1.24182,-1.24182 -36.70632,-4.83676 -37.71955,-3.82353 -0.49344,0.49343 2.12959,2.99282 5.82894,5.5542 5.77816,4.00069 7.91213,4.50818 15.14153,3.60093 4.62849,-0.58086 10.47098,-1.83763 12.9833,-2.7928 z m 30.43825,-24.30989 c 0,-3.50023 -12.63912,-5.89863 -35.58301,-6.75224 -16.17281,-0.60171 -24.1613,-0.29302 -24.1613,0.9336 0,1.01916 6.0444,2.32321 13.61819,2.93805 7.49,0.60805 18.36259,1.76085 24.1613,2.5618 14.87867,2.0551 21.96482,2.15794 21.96482,0.31879 z m -66.61944,-3.45732 c 3.87974,-3.14164 3.90749,-3.32816 0.63396,-4.26179 -14.40156,-4.1074 -17.0013,-3.27947 -13.02605,4.14835 2.29978,4.29718 7.17032,4.34176 12.39209,0.11344 z M 468.29,633.75558 c 0,-1.77336 -4.00161,-9.81267 -8.89247,-17.86515 -15.68426,-25.82315 -15.18461,-23.00206 -6.13964,-34.66494 8.95028,-11.54079 13.28267,-22.24785 13.25776,-32.76517 l -0.0172,-7.24711 -4.3684,9.38373 c -2.40261,5.16104 -8.70736,16.04029 -14.01055,24.17611 -11.6289,17.84031 -12.68067,21.35021 -8.71112,29.07031 3.23997,6.30114 25.35884,32.7871 27.56369,33.00578 0.72484,0.0719 1.31789,-1.32023 1.31789,-3.09356 z m 27.23842,-17.86526 c 1.19097,-1.92705 -6.12671,-5.26827 -11.53814,-5.26827 -4.63975,0 -4.29282,3.26874 0.55369,5.2168 5.36057,2.15468 9.6721,2.17489 10.98445,0.0515 z M 642.60343,514.62569 c 2.60975,-1.32332 7.45502,-2.40604 10.76726,-2.40604 3.38325,0 7.0474,-1.23523 8.36167,-2.81884 1.28669,-1.55035 4.07054,-3.477 6.18637,-4.28144 2.45198,-0.93224 3.83063,-2.9367 3.80195,-5.52779 -0.0247,-2.23586 2.01384,-8.8096 4.5302,-14.60831 5.35527,-12.34077 6.20564,-28.91822 1.99975,-38.98433 -1.46236,-3.49993 -2.31525,-6.70709 -1.89532,-7.12703 1.59867,-1.59866 11.75143,7.51288 12.7341,11.42815 0.91029,3.62689 -0.94871,16.62695 -4.01738,28.09376 -1.90725,7.12683 2.47903,4.18115 7.84963,-5.27155 5.98086,-10.52685 21.37435,-44.38687 21.37435,-47.01575 0,-0.96039 -2.96525,-1.82498 -6.58945,-1.92132 -3.62419,-0.0963 -8.52454,-0.71518 -10.88966,-1.37521 -3.94785,-1.10173 -3.69173,-1.38237 3.1258,-3.42495 4.57376,-1.37034 6.96854,-2.96506 6.23499,-4.152 -0.83266,-1.34726 -10.49715,-1.6019 -32.11937,-0.84629 -57.89391,2.02318 -86.29696,12.83478 -101.87854,38.78001 -6.27027,10.44076 -15.01336,32.54076 -13.48016,34.07396 0.4986,0.4986 9.9133,-7.81866 20.92156,-18.48281 23.97487,-23.2254 42.80085,-35.50977 36.56621,-23.86028 -1.73415,3.24031 -2.50738,13.33061 -2.20711,28.80197 0.18881,9.72863 7.85899,22.38304 18.035,29.7545 8.70592,6.30654 6.82355,7.00836 -18.79746,7.00836 -20.79185,0 -28.08266,2.40961 -13.61218,4.4988 4.60934,0.6655 9.46517,1.78989 10.79072,2.49865 3.63734,1.94487 26.80237,-0.0936 32.20707,-2.83422 z"
       id="path12"
       transform="scale(0.75)" />
    <path
       style="fill:#ffffff;stroke-width:1.75719"
       d="m 504.92367,774.47962 c -2.44151,-2.65774 -8.28233,-9.97203 -12.9796,-16.25397 -4.69727,-6.28193 -18.4646,-23.16034 -30.59406,-37.50753 -44.72244,-52.89948 -55.22026,-73.84858 -64.3917,-128.49795 -6.55234,-39.0431 -10.92747,-59.15035 -17.58203,-80.80347 -6.5053,-21.16744 -7.04713,-24.44813 -3.86249,-23.38658 1.16149,0.38717 3.09315,4.55081 4.29258,9.25254 2.89334,11.34191 12.24037,29.52369 17.78329,34.59194 5.12023,4.68177 5.1401,4.86728 -1.44609,-13.5048 -2.07878,-5.79871 -4.19931,-16.583 -4.71231,-23.96509 -0.89846,-12.92915 -0.76762,-13.53015 3.56357,-16.36805 2.73971,-1.79512 7.04331,-2.72989 11.01588,-2.3927 l 6.5196,0.55338 0.26047,18.45045 c 0.28665,20.30495 3.31117,29.89469 13.40689,42.50871 2.85529,3.56753 5.19143,6.83593 5.19143,7.2631 0,2.48215 -8.97402,2.39738 -16.15359,-0.15257 -6.25775,-2.22256 -8.86039,-2.46472 -10.36108,-0.96403 -1.50069,1.50069 -0.6292,2.7151 3.46935,4.83454 3.01041,1.55675 5.47347,4.08084 5.47347,5.6091 0,1.9564 0.90996,2.4046 3.07507,1.51464 1.69129,-0.69519 8.93168,-2.76254 16.08975,-4.59409 7.15807,-1.83155 13.98914,-4.13882 15.18015,-5.12728 3.13552,-2.60225 6.06049,-15.72087 6.13349,-27.50893 l 0.0632,-10.2043 4.252,5.20289 c 2.33861,2.86159 4.72917,4.72572 5.31236,4.14255 0.89835,-0.89836 -2.61392,-15.43876 -5.86525,-24.28152 -0.83704,-2.27652 -0.55924,-2.30227 2.03811,-0.18889 1.65399,1.34578 3.53842,1.9157 4.18764,1.26649 0.64921,-0.64922 -4.68756,-7.08776 -11.85949,-14.30789 -13.3033,-13.39268 -14.86425,-17.51981 -2.89468,-7.65348 3.65251,3.01071 6.98626,5.12868 7.40833,4.70661 0.42207,-0.42208 -2.78155,-5.80737 -7.11915,-11.96731 -4.33761,-6.15995 -7.88656,-11.7837 -7.88656,-12.49723 0,-0.71352 2.17452,-1.54753 4.83226,-1.85333 l 4.83226,-0.55602 -6.63903,-3.92366 c -4.58414,-2.70922 -7.724,-6.4548 -10.14441,-12.10139 -4.71388,-10.99702 -13.57831,-44.92555 -14.86567,-56.89816 l -1.03917,-9.66452 7.55821,17.58668 c 14.32297,33.32711 27.83058,53.4683 45.4718,67.80295 14.27978,11.60325 17.63176,12.22341 13.96688,2.58405 -0.94253,-2.47904 -1.3067,-4.50735 -0.80927,-4.50735 0.49743,0 4.98096,2.74529 9.96339,6.10066 4.98242,3.35536 9.35116,5.80846 9.70829,5.45133 0.35713,-0.35714 -1.77376,-7.51447 -4.73532,-15.9052 -2.96156,-8.39072 -5.38465,-16.10759 -5.38465,-17.14861 0,-1.04101 3.91923,3.68802 8.70939,10.50897 7.23526,10.30263 19.40558,22.31925 19.40558,19.1605 0,-0.47168 -1.96936,-9.02967 -4.37636,-19.01776 -5.35249,-22.2107 -7.8788,-51.00527 -7.83564,-89.30948 l 0.0327,-28.99357 4.86535,12.3003 c 8.12841,20.54979 31.82136,57.3497 44.00495,68.34851 l 3.69162,3.33263 -13.66695,7.71889 c -7.51684,4.24539 -17.19597,10.82592 -21.5092,14.62338 -6.56512,5.78011 -7.41298,7.21331 -5.20644,8.80086 5.19955,3.74092 19.52712,0.34663 37.57006,-8.90057 12.54263,-6.42825 18.64012,-8.64511 21.67987,-7.88218 3.95132,0.99172 3.55801,1.56152 -5.98481,8.6705 -5.61774,4.18497 -12.28623,9.89027 -14.81886,12.67845 -5.54654,6.10619 -11.17264,14.73394 -9.60794,14.73394 0.62015,0 6.44392,-4.4096 12.94169,-9.79911 15.04543,-12.47927 39.42759,-24.41742 59.44057,-29.10369 20.09335,-4.70508 22.23337,-5.58323 15.47339,-6.34939 -4.85131,-0.54984 -36.82167,5.04923 -43.53041,7.62362 -1.73675,0.66645 -3.58006,-0.80809 -5.39314,-4.3142 -3.37321,-6.5231 -3.405,-7.25843 -0.3138,-7.25843 1.34241,0 13.58864,-5.62407 27.21384,-12.49794 l 24.7731,-12.49794 8.86365,5.68779 c 16.28316,10.44887 36.86825,17.21909 36.86825,12.12557 0,-1.05103 -2.8809,-7.0625 -6.402,-13.35883 -6.7534,-12.07618 -6.39319,-14.51261 2.15482,-14.57545 4.45785,-0.0328 24.05047,26.10729 35.76888,47.72212 7.04134,12.9879 7.87335,15.7904 8.55746,28.82438 0.98519,18.77002 -2.39207,67.16786 -6.84406,98.07887 -7.14581,49.61472 -24.19334,103.0792 -42.66879,133.81786 -4.50504,7.49528 -7.80841,14.01034 -7.34082,14.47793 1.73958,1.73958 9.85059,-5.21041 20.44041,-17.5145 11.77511,-13.68127 22.2588,-29.24609 31.46779,-46.71932 3.19256,-6.05754 6.10982,-10.70857 6.4828,-10.33557 0.64364,0.64362 -12.47084,66.97708 -14.58405,73.7666 -2.95948,9.50858 -67.39317,42.12481 -136.41755,69.05436 -30.54249,11.91603 -46.9545,16.46745 -59.37994,16.46745 -8.45463,0 -10.42385,-0.6678 -14.2495,-4.83226 z m 24.49734,-69.28676 4.76346,-1.93512 -6.15015,-1.31385 c -10.50245,-2.24359 -31.63091,-3.74876 -31.59898,-2.25106 0.0167,0.78335 2.58659,3.25176 5.71086,5.48534 4.74115,3.3895 7.07207,3.88647 14.09591,3.00542 4.62849,-0.58059 10.55899,-1.92642 13.1789,-2.99073 z m 30.24265,-24.11147 c 0,-3.50023 -12.63912,-5.89863 -35.58301,-6.75224 -16.17281,-0.60171 -24.1613,-0.29302 -24.1613,0.9336 0,1.01916 6.0444,2.32321 13.61819,2.93805 7.49,0.60805 18.36259,1.76085 24.1613,2.5618 14.87867,2.0551 21.96482,2.15794 21.96482,0.31879 z m -66.61944,-3.45732 c 3.87974,-3.14164 3.90749,-3.32816 0.63396,-4.26179 -14.40156,-4.1074 -17.0013,-3.27947 -13.02605,4.14835 2.29978,4.29718 7.17032,4.34176 12.39209,0.11344 z m -28.76732,-53.4123 c -2.35497,-4.09176 -7.63702,-13.13712 -11.7379,-20.10078 l -7.45615,-12.66122 6.24264,-7.61832 c 8.4589,-10.32297 15.17461,-25.30491 15.16545,-33.83231 l -0.008,-7.02874 -6.73117,12.3003 c -3.70215,6.76516 -10.04257,17.4047 -14.08982,23.64341 -9.81625,15.13141 -10.30118,17.78463 -4.90694,26.84758 7.00643,11.77164 26.53293,32.48564 27.2268,28.88262 0.31702,-1.64612 -1.3504,-6.34075 -3.70536,-10.43254 z m 31.25152,-8.32145 c 1.19097,-1.92705 -6.12671,-5.26827 -11.53814,-5.26827 -4.63975,0 -4.29282,3.26874 0.55369,5.2168 5.36057,2.15468 9.6721,2.17489 10.98445,0.0515 z M 642.60343,514.64513 c 2.60975,-1.33401 7.45502,-2.42548 10.76726,-2.42548 3.38325,0 7.0474,-1.23523 8.36167,-2.81884 1.28669,-1.55035 4.23145,-3.53819 6.54394,-4.41738 2.65985,-1.01127 3.84342,-2.53955 3.22162,-4.15992 -0.54059,-1.40876 1.07489,-7.05617 3.58995,-12.5498 5.82813,-12.73029 7.27633,-29.99642 3.43899,-41.00132 -1.50331,-4.3113 -2.43511,-8.13691 -2.07065,-8.50137 1.52223,-1.52224 11.68537,7.75262 12.6332,11.52904 0.91029,3.62689 -0.94871,16.62695 -4.01738,28.09376 -1.84275,6.8858 1.92487,4.28612 7.63984,-5.27155 5.84039,-9.76744 21.58414,-44.06132 21.58414,-47.01575 0,-0.96039 -2.27336,-1.74616 -5.05191,-1.74616 -2.77855,0 -7.69969,-0.52955 -10.93586,-1.17679 l -5.88394,-1.17679 5.99752,-2.01934 c 3.29863,-1.11064 6.35105,-3.07996 6.78314,-4.37627 0.64674,-1.9402 -4.61616,-2.15126 -29.76607,-1.19374 -70.27079,2.67539 -96.20381,16.02418 -112.32042,57.8159 -2.9736,7.71083 -5.00201,14.42424 -4.50755,14.91869 0.49443,0.49445 9.86087,-7.76555 20.81427,-18.35557 17.89113,-17.29758 35.26828,-30.40728 37.43431,-28.24125 0.44393,0.44392 -0.0657,3.31099 -1.13253,6.37125 -1.0668,3.06026 -1.66342,12.47961 -1.32581,20.93188 0.55504,13.8953 1.14809,16.13691 6.18958,23.39529 3.06666,4.41514 8.35656,9.93299 11.75536,12.2619 4.14563,2.84061 5.49144,4.67191 4.0888,5.56374 -1.14996,0.73116 -11.33529,1.3415 -22.63407,1.3563 -21.33019,0.0279 -28.74891,2.40617 -14.19519,4.55058 4.60934,0.67917 9.81059,1.75287 11.55833,2.386 4.97255,1.80136 26.17904,-0.0381 31.43946,-2.72701 z"
       id="path13"
       transform="scale(0.75)" />
    <path
       style="fill:#ffffff;stroke-width:1.75719"
       d="m 616.639,798.104 c 17.57614,-13.18989 38.99535,-32.37868 64.72301,-57.98326 16.18079,-16.10339 29.41963,-28.65004 29.41963,-27.88144 0,3.63309 -10.9478,33.15318 -17.40666,46.93603 -3.97409,8.48048 -6.97718,15.66749 -6.67354,15.97113 0.30364,0.30364 4.83116,-2.32963 10.06115,-5.85171 20.10113,-13.53689 42.35698,-40.45467 58.85584,-71.18436 4.30103,-8.01082 7.83327,-13.8152 7.84942,-12.89862 0.0649,3.68133 -9.1883,31.53869 -14.938,44.97199 -3.36538,7.86271 -6.11887,14.74368 -6.11887,15.29106 0,2.70741 8.47584,-7.08506 15.86184,-18.32581 17.79276,-27.07878 32.51338,-59.79033 44.56956,-99.04057 3.39941,-11.06719 6.20727,-19.7268 6.23967,-19.24358 0.0324,0.48323 -1.10126,12.7396 -2.51927,27.23638 -1.418,14.49679 -2.59442,43.48704 -2.61424,64.42278 l -0.0361,38.06499 -23.28271,7.87727 c -103.69197,35.08225 -165.63695,55.67373 -167.23466,55.59139 -1.04195,-0.0537 0.41779,-1.83283 3.24389,-3.95367 z"
       id="path14"
       transform="scale(0.75)" />
    <path
       style="fill:#ffffff;stroke-width:1.75719"
       d="m 818.40927,602.34196 c -4.10743,-0.38935 -7.46804,-1.39074 -7.46804,-2.22531 0,-0.83458 1.55804,-8.10341 3.46232,-16.15294 1.90428,-8.04954 6.34692,-30.05483 9.87254,-48.90065 5.54499,-29.64014 6.57881,-39.36445 7.65926,-72.04461 0.68698,-20.77872 1.39621,-33.43046 1.57608,-28.11498 0.41714,12.32749 2.52556,16.18526 5.65188,10.34122 3.24867,-6.07274 20.64691,-23.90675 27.38551,-28.07144 18.75897,-11.59368 34.51062,-6.04475 47.03898,16.57069 8.28196,14.95009 11.35106,26.68851 12.67431,48.47553 1.33551,21.98887 -0.8798,31.7998 -11.04063,48.89554 -12.83162,21.58938 -49.5896,58.22471 -66.50076,66.27886 -9.56741,4.55661 -18.7052,6.04827 -30.31145,4.94809 z M 850.7484,551.7784 c 19.41821,-9.5548 31.14664,-20.19619 34.01995,-30.86686 4.69514,-17.43643 -3.13109,-39.27692 -16.69109,-46.57946 -3.3977,-1.82979 -6.17765,-3.87136 -6.17765,-4.53683 0,-1.7407 12.15751,-11.04417 19.02364,-14.55774 5.14859,-2.63466 6.30442,-2.68972 9.70403,-0.46221 6.25668,4.09954 13.20943,19.00255 15.82074,33.9113 2.06075,11.76549 2.63172,13.11531 3.76529,8.90142 1.77939,-6.61471 -0.0284,-38.91575 -2.67018,-47.70885 -2.84005,-9.45313 -13.76473,-20.24725 -20.49216,-20.24725 -5.99984,0 -18.40798,7.56322 -26.29133,16.02553 -7.61464,8.17387 -21.30298,29.84161 -24.40327,38.62878 -2.25192,6.38261 -2.24355,8.48498 0.0693,17.41064 3.71844,14.34993 3.46187,16.30292 -4.37758,33.32135 -3.85445,8.36751 -7.5363,17.85473 -8.18189,21.08271 l -1.17381,5.86904 5.98541,-1.1384 c 3.29198,-0.62612 13.22374,-4.70005 22.07058,-9.05317 z m 29.42098,2.73802 c 8.23906,-5.66862 15.11476,-13.88788 19.75134,-23.61088 3.8635,-8.10186 1.53184,-10.64144 -3.45991,-3.76842 -2.09574,2.88559 -8.75253,10.73917 -14.79286,17.45241 -14.44907,16.05875 -14.9171,19.15908 -1.49857,9.92689 z"
       id="path15"
       transform="scale(0.75)" />
    <rect
       style="fill:#ffffff;stroke-width:0.75"
       id="rect1"
       width="32.947235"
       height="163.41827"
       x="863.21753"
       y="585.14288" />
    <rect
       style="fill:none;stroke-width:0.75"
       id="rect2"
       width="701.11707"
       height="471.80435"
       x="39.536678"
       y="-2.6357784" />
    <rect
       style="fill:none;stroke-width:0.75"
       id="rect3"
       width="578.55341"
       height="610.1828"
       x="206.90863"
       y="21.086227" />
    <rect
       style="fill:none;stroke-width:0.75"
       id="rect4"
       width="631.26904"
       height="578.55334"
       x="187.14029"
       y="27.675676" />
    <rect
       style="fill:none;stroke-width:0.75"
       id="rect5"
       width="660.26251"
       height="504.75159"
       x="129.15315"
       y="28.993565" />
    <rect
       style="fill:none;stroke-width:0.75"
       id="rect6"
       width="465.2149"
       height="504.75159"
       x="202.95496"
       y="-3.9536681" />
  </g>
  <path
     style="fill:#ffffff;stroke-width:1.75719"
     d="m 222.284,462.91994 c -8.21485,-2.76537 -21.11427,-6.3921 -28.66538,-8.05941 -9.75451,-2.15381 -14.25908,-4.02137 -15.55923,-6.45071 -1.00647,-1.8806 -3.39073,-10.63094 -5.29836,-19.44521 -4.56462,-21.09096 -6.35959,-81.93489 -3.25813,-110.44068 2.17286,-19.97101 10.22552,-54.35961 18.42143,-78.66808 l 4.44343,-13.17889 -0.80139,20.82006 c -2.49108,64.718 11.39272,131.16175 42.05835,201.2788 4.39358,10.04592 7.98832,18.54631 7.98832,18.88975 0,1.3145 -4.90206,0.11095 -19.32904,-4.74563 z"
     id="path2"
     transform="scale(0.75)" />
  <path
     style="fill:#ffffff;stroke-width:1.75719"
     d="m 404.09848,1079.5073 c -3.47967,-3.0552 -14.05512,-15.9046 -23.50099,-28.5543 -18.78497,-25.1562 -35.325,-45.3607 -68.31815,-83.45364 -43.28575,-49.97655 -65.88908,-85.02725 -83.73527,-129.84724 -9.29376,-23.34093 -14.12591,-43.97927 -22.94663,-98.00616 -11.4195,-69.94443 -17.73806,-97.63708 -33.55712,-147.07248 -9.11118,-28.47294 -9.40521,-31.15263 -3.41822,-31.15263 3.62488,0 4.62684,1.20924 6.18784,7.46804 4.82104,19.32978 11.55286,37.31431 18.68167,49.90941 8.92098,15.76148 19.03291,28.48404 21.05348,26.48888 0.75595,-0.74644 -0.45553,-5.49084 -2.69218,-10.54312 -10.08179,-22.77323 -12.8706,-35.91997 -13.08655,-61.69126 l -0.20437,-24.39037 4.95088,-3.71697 c 3.80511,-2.85675 8.0943,-3.85972 18.5336,-4.33379 15.75652,-0.71554 19.14883,1.2427 16.08997,9.28812 -2.78655,7.32918 -2.20907,46.05447 0.86724,58.15659 3.96155,15.58466 13.53976,33.77316 23.87525,45.3378 9.97314,11.1592 9.83147,12.32522 -1.76855,14.55695 -4.21302,0.81054 -9.89109,-0.1701 -19.20215,-3.31632 -12.53498,-4.23561 -19.45064,-4.34916 -20.19385,-0.3316 -0.16994,0.9186 3.84238,3.89489 8.91625,6.61398 7.25202,3.88635 9.22522,5.85954 9.22522,9.22522 0,5.00211 0.54301,5.15801 5.85128,1.67991 2.18375,-1.43084 12.11241,-4.23377 22.0637,-6.22868 23.70017,-4.75117 31.3083,-7.90858 34.6561,-14.38253 4.61353,-8.92158 7.65408,-27.83748 7.68585,-47.81524 l 0.0305,-19.19102 5.23461,7.90282 c 2.87904,4.34654 6.83271,9.34908 8.78593,11.11672 3.48673,3.15545 3.55016,3.12106 3.4875,-1.8907 -0.0351,-2.80754 -3.13607,-14.19411 -6.89103,-25.30351 -3.75498,-11.1094 -6.59312,-20.43301 -6.30698,-20.71915 0.28612,-0.28614 2.90819,1.48909 5.82681,3.94493 6.33678,5.33206 10.12439,5.97596 7.6194,1.29533 -2.77212,-5.17975 -33.57255,-35.18731 -44.97268,-43.81497 -13.84705,-10.47952 -32.30257,-19.18163 -47.51436,-22.40391 -16.30251,-3.45331 -49.9018,-3.54658 -54.52579,-0.15136 -3.28985,2.4156 -3.23533,2.57153 1.53572,4.39296 2.72066,1.03864 8.2558,1.96728 12.3003,2.06361 4.04451,0.0963 9.33048,0.76483 11.74662,1.48554 3.37013,1.0053 1.52903,1.60638 -7.90734,2.58164 -6.76517,0.69916 -20.40532,2.23656 -30.31145,3.41641 -9.90614,1.17984 -18.01116,2.06 -18.01116,1.9559 0,-0.10411 -3.5583,-14.18484 -7.90733,-31.29052 -4.34904,-17.10568 -7.90734,-32.66368 -7.90734,-34.57332 0,-3.02793 1.62969,-2.42964 12.7396,4.67695 7.00677,4.48196 18.93339,13.96558 26.50359,21.0747 12.76525,11.98777 18.74394,15.53614 18.74394,11.1246 0,-0.99059 -1.57146,-6.27217 -3.49213,-11.73682 -1.92067,-5.46466 -3.04854,-10.37931 -2.50637,-10.92149 0.54216,-0.54216 17.04293,7.12964 36.66838,17.04844 36.62642,18.51122 64.80755,35.92326 81.72448,50.49449 5.27945,4.54739 9.87946,7.42663 10.22224,6.39829 0.34277,-1.02834 -4.25575,-8.43109 -10.21895,-16.45055 -9.59495,-12.90351 -17.50962,-25.81692 -17.50962,-28.56831 0,-0.52172 3.42651,-0.9486 7.61447,-0.9486 4.18796,0 8.16007,-0.54558 8.8269,-1.21242 0.66684,-0.66685 -4.14346,-4.02747 -10.68954,-7.46804 -11.88615,-6.2473 -11.90942,-6.27431 -17.493,-20.3131 -13.08203,-32.89215 -27.29722,-90.67701 -29.61058,-120.36722 l -1.02685,-13.1789 7.71848,21.96482 c 20.73531,59.00739 43.57656,98.3823 75.71415,130.5199 18.9115,18.91148 41.5337,34.07812 41.5337,27.84547 0,-0.84619 -1.97683,-6.00851 -4.39296,-11.47181 -2.41613,-5.4633 -4.39297,-10.34474 -4.39297,-10.84765 0,-0.50289 7.31429,4.15585 16.25397,10.35278 8.93968,6.19691 18.10794,12.23393 20.37392,13.41558 3.85164,2.00854 4.04153,1.88116 2.91591,-1.95603 -0.66222,-2.25747 -3.15521,-9.09865 -5.53999,-15.20262 -5.12248,-13.1113 -13.74316,-40.80523 -15.41626,-49.52477 -0.96261,-5.01661 0.0561,-3.86662 5.52687,6.23947 9.86929,18.23131 21.65604,34.00502 33.8365,45.28197 11.29912,10.461 14.23429,12.01351 13.05451,6.90498 -0.39058,-1.69129 -3.47007,-14.10271 -6.84328,-27.58092 -8.59073,-34.32556 -11.31997,-55.14141 -13.22842,-100.8927 -2.11041,-50.59321 -2.22424,-117.45164 -0.1962,-115.24804 0.84498,0.91813 3.28818,7.20446 5.42937,13.96963 11.89973,37.59793 48.53818,96.58438 77.97181,125.53157 6.32754,6.22298 11.14153,11.90202 10.69773,12.62009 -0.44379,0.71807 -8.10774,5.15706 -17.03101,9.86443 -28.68675,15.13333 -57.518,36.10965 -57.518,41.84748 0,5.98374 13.33328,7.73722 30.1774,3.96869 5.1476,-1.15168 23.02767,-9.05901 39.73348,-17.57186 16.70581,-8.51284 31.57132,-15.47791 33.0345,-15.47791 1.46315,0 5.06433,1.24318 8.00261,2.76262 l 5.3423,2.76261 -14.62687,9.97698 c -17.00439,11.59869 -39.25906,33.24745 -45.1066,43.87851 -2.23637,4.0658 -3.34208,7.39234 -2.45716,7.39234 0.88491,0 7.06369,-4.83168 13.73061,-10.73705 35.32729,-31.29197 80.11078,-53.18661 127.21735,-62.19656 18.96754,-3.62787 21.08623,-4.25667 21.08623,-6.25816 0,-4.08925 -44.3331,2.05632 -71.38451,9.89552 -7.90031,2.28942 -15.27863,4.38676 -16.39627,4.66078 -2.38845,0.58556 -11.27869,-19.87897 -9.31904,-21.4516 0.73326,-0.58844 6.0776,-2.9359 11.87631,-5.21658 13.47117,-5.29831 52.18371,-24.53769 69.90306,-34.74046 l 13.67312,-7.87295 13.56326,8.87068 c 24.02857,15.71524 61.44998,31.04997 67.15983,27.52109 3.09761,-1.91443 1.97693,-4.86195 -10.355,-27.2349 -8.00825,-14.52883 -11.42834,-22.35296 -10.10242,-23.11132 1.10251,-0.63058 6.42981,-1.69493 11.83843,-2.36522 l 9.83386,-1.21872 14.06877,19.05848 c 22.04496,29.8636 38.90548,56.17617 48.24316,75.28844 13.26742,27.15561 14.11439,42.71103 7.46265,137.06048 -9.62516,136.52532 -40.04326,248.21233 -90.16749,331.07069 -4.91663,8.12749 -8.93934,15.44177 -8.93934,16.25396 0,4.25157 6.01109,-0.39255 23.67568,-18.29161 30.09948,-30.49904 49.29046,-58.11024 74.80589,-107.62763 6.05229,-11.74559 10.48031,-18.75107 9.99614,-15.81467 -0.47808,2.89935 -7.04453,35.63502 -14.59211,72.74594 -11.699,57.52293 -14.35948,68.23091 -18.0391,72.60389 -17.37227,20.64578 -116.76497,70.33128 -233.11462,116.53198 -62.14481,24.6768 -89.48641,32.4154 -114.59522,32.4345 -15.67761,0.012 -16.39412,-0.1644 -22.51951,-5.5426 z m 37.74626,-127.16597 c 6.74663,-2.06232 8.82116,-3.35055 7.01943,-4.35886 -3.3279,-1.86239 -24.3353,-4.70791 -46.46863,-6.29433 -16.87769,-1.2097 -17.46773,-1.13273 -14.93608,1.94858 1.44968,1.76441 6.19408,5.51445 10.54311,8.33344 7.40893,4.80233 8.73801,5.06783 21.08623,4.21206 7.24839,-0.50235 17.48857,-2.23075 22.75594,-3.84089 z m 57.00077,-43.8763 c -0.64202,-5.77805 -26.31753,-10.83205 -63.56911,-12.51302 -25.69241,-1.15938 -42.54539,-0.0658 -42.54539,2.76061 0,2.11154 8.0981,3.26151 38.27,5.43453 14.76656,1.0635 32.55807,2.99539 39.53668,4.29307 14.294,2.65797 28.60178,2.67052 28.30782,0.0248 z M 377.1164,903.7485 c 11.57159,-6.50361 9.00113,-8.43657 -16.6505,-12.52099 -4.8642,-0.77449 -4.99633,-0.60109 -4.03869,5.30013 1.9181,11.81985 8.45007,14.09961 20.68919,7.22086 z m -42.37252,-80.57698 c 0,-4.88758 -5.14472,-14.72642 -20.17764,-38.58808 -7.00199,-11.1142 -14.76978,-24.24293 -17.26176,-29.17496 l -4.53087,-8.96733 7.05483,-6.84734 c 9.62067,-9.33772 21.18281,-27.24976 26.84309,-41.58525 4.72328,-11.96239 8.19047,-34.77486 5.25137,-34.55145 -0.86459,0.0657 -5.69694,8.63989 -10.73853,19.05371 -5.04161,10.41384 -15.10925,27.76798 -22.37254,38.5648 -17.86691,26.55896 -19.10325,29.18532 -18.06693,38.37955 1.10573,9.80996 8.47401,20.9126 29.52376,44.48683 21.48047,24.05659 24.47522,26.4095 24.47522,19.22952 z m 49.20121,-32.22475 c 0,-4.04292 -20.14607,-9.99498 -24.57191,-7.25966 -2.4492,1.51368 0.87613,5.90884 6.06045,8.01026 6.12544,2.48288 18.51146,1.98066 18.51146,-0.7506 z M 622.04375,614.7634 c 10.90376,-0.60906 19.18167,-2.20769 26.6575,-5.14813 6.36906,-2.50513 14.47611,-4.26478 19.64867,-4.26478 7.76225,0 9.24703,-0.61955 12.52828,-5.22763 2.28682,-3.21155 6.32931,-5.92959 10.48209,-7.04781 7.11075,-1.91473 11.23955,-7.0536 5.66718,-7.0536 -2.59548,0 -1.71993,-2.79175 5.37311,-17.13256 16.62115,-33.60486 17.98423,-62.53106 4.22297,-89.61648 -2.57788,-5.07387 -4.14991,-9.22522 -3.49339,-9.22522 2.87961,0 18.59033,11.40847 23.65613,17.1781 5.54284,6.31294 5.55568,6.37377 4.51622,21.37352 -0.57334,8.27339 -2.6575,20.57517 -4.63151,27.33726 -4.25325,14.56991 -4.28277,14.94166 -1.1868,14.94166 3.16394,0 9.41383,-9.63913 20.05717,-30.93401 12.17672,-24.36274 30.97704,-67.33321 29.92136,-68.38891 -0.4843,-0.48428 -9.70053,-1.7785 -20.48051,-2.87604 -10.78,-1.09754 -19.59998,-2.52474 -19.59998,-3.17154 0,-0.64682 4.54671,-2.59526 10.10381,-4.32988 10.42099,-3.25287 14.49679,-5.57131 14.49679,-8.24622 0,-2.09619 -66.33363,-1.92871 -91.37366,0.23071 -40.32169,3.47728 -77.39785,12.81122 -102.57769,25.82397 -18.45881,9.53939 -38.32575,30.10205 -48.88607,50.59806 -12.52311,24.3055 -22.48922,51.83698 -18.76444,51.83698 0.98262,0 14.97551,-13.03994 31.09534,-28.97763 32.31071,-31.94566 44.16674,-41.61271 63.02312,-51.38716 13.57053,-7.03445 17.15992,-6.89978 11.39621,0.42758 -5.72499,7.27814 -7.77348,20.6173 -7.01782,45.69797 0.62238,20.65698 1.13862,23.6843 5.45216,31.97152 6.48808,12.46498 24.22186,31.00724 34.60268,36.18024 l 8.53483,4.25308 -9.76384,2.18504 c -5.3701,1.20177 -24.84102,2.53196 -43.26871,2.95595 -18.4277,0.42401 -33.86698,1.13302 -34.30955,1.57559 -1.8048,1.8048 1.93083,2.95107 14.84067,4.55383 7.47032,0.92744 15.63833,2.83717 18.15115,4.24381 2.71882,1.52199 6.70325,2.15034 9.84031,1.55183 2.89935,-0.55315 12.38816,-1.40326 21.08622,-1.8891 z"
     id="path3"
     transform="scale(0.75)" />
  <path
     style="fill:#ffffff;stroke-width:1.75719"
     d="M 536.57806,394.9275 C 506.7708,319.60974 490.90802,245.71212 491.22032,183.62591 l 0.084,-16.69326 4.99078,13.17889 c 10.04563,26.52694 28.04061,61.65218 42.76057,83.46632 16.86721,24.99625 48.34764,59.57152 75.61069,83.04397 9.52387,8.19969 16.66139,15.50778 15.86115,16.24021 -0.80024,0.73241 -12.92062,5.46296 -26.93418,10.51234 -14.01355,5.04938 -33.84678,13.05175 -44.07384,17.78304 -10.22705,4.73129 -19.14238,8.60234 -19.81183,8.60234 -0.66945,0 -2.07776,-2.17452 -3.12957,-4.83226 z"
     id="path4"
     transform="scale(0.75)" />
  <path
     style="fill:#ffffff;stroke-width:1.75719"
     d="m 689.12126,332.5474 c -19.60871,-33.63779 -47.67291,-87.20267 -46.37043,-88.50516 0.39875,-0.39875 3.7315,3.83364 7.40611,9.40531 7.79236,11.81528 33.84038,46.14975 55.01038,72.51041 l 14.81738,18.45045 -6.79801,2.06144 c -13.28185,4.0276 -13.76443,3.74842 -24.06543,-13.92245 z"
     id="path5"
     transform="scale(0.75)" />
  <path
     style="fill:#ffffff;stroke-width:1.75719"
     d="m 1323.4109,273.56655 c -12.4686,-35.12502 -29.7567,-79.72348 -43.7195,-112.78405 -41.0038,-97.087639 -76.7125,-155.7282047 -131.6309,-216.162859 -9.6461,-10.615019 -16.8802,-19.300035 -16.0758,-19.300035 2.5745,0 41.3994,34.095866 53.4766,46.962824 47.861,50.990817 79.6124,106.233449 106.8838,185.96153 11.4686,33.52837 41.0963,135.19286 40.1606,137.8071 -0.3074,0.85891 -4.4001,-9.25912 -9.0948,-22.48451 z"
     id="path6"
     transform="scale(0.75)" />
</svg>
