<svg width="32" height="32" viewBox="0 0 32 32" fill="none" xmlns="http://www.w3.org/2000/svg">
<path d="M11.716 27.7368V28.3293C11.716 30.3566 13.3594 32 15.3867 32H15.9648C17.6748 32 19.0611 30.5983 19.0611 28.8882C19.0611 27.1951 20.4337 25.8073 22.1268 25.8073C23.82 25.8073 25.1925 24.4318 25.1925 22.7387C25.1925 21.0424 26.5834 19.6645 28.2797 19.6645C29.9936 19.6645 31.3989 18.2751 31.3989 16.5612V15.4388C31.3989 13.7249 29.9936 12.3355 28.2797 12.3355C26.5834 12.3355 25.1925 10.9604 25.1925 9.26414C25.1925 7.56786 23.814 6.19274 22.1177 6.19274C20.4177 6.19274 19.0361 4.80553 19.0361 3.10549C19.0361 1.39541 17.6498 0 15.9397 0H15.3242C13.3038 0 11.666 1.63784 11.666 3.65821V4.2132C11.666 5.92707 13.0556 7.31643 14.7695 7.31643C16.483 7.31643 17.8724 8.71462 17.8724 10.4281C17.8724 12.1316 19.2534 13.5217 20.9569 13.5217H21.5442C22.9233 13.5217 24.0413 14.6396 24.0413 16.0187C24.0413 17.3978 22.9233 18.5158 21.5442 18.5158H20.9438C19.2475 18.5158 17.8724 19.8909 17.8724 21.5872C17.8724 23.2835 16.4939 24.6586 14.7976 24.6586C13.0976 24.6586 11.716 26.0368 11.716 27.7368Z" fill="white"/>
<path d="M10.1729 9.70658C10.1729 10.8848 9.21779 11.8399 8.03958 11.8399C6.86137 11.8399 5.90625 10.8848 5.90625 9.70658C5.90625 8.52837 6.86137 7.57324 8.03958 7.57324C9.21779 7.57324 10.1729 8.52837 10.1729 9.70658Z" fill="white"/>
<path d="M10.1729 22.3468C10.1729 23.525 9.21779 24.4801 8.03958 24.4801C6.86137 24.4801 5.90625 23.525 5.90625 22.3468C5.90625 21.1686 6.86137 20.2134 8.03958 20.2134C9.21779 20.2134 10.1729 21.1686 10.1729 22.3468Z" fill="white"/>
<path d="M1 16.0002C1 16.9428 1.7641 17.7069 2.70667 17.7069C3.64923 17.7069 4.41333 16.9428 4.41333 16.0002C4.41333 15.0576 3.64923 14.2935 2.70667 14.2935C1.7641 14.2935 1 15.0576 1 16.0002Z" fill="white"/>
<path d="M11.666 15.9999C11.666 17.5316 12.9076 18.7732 14.4393 18.7732C15.971 18.7732 17.2126 17.5316 17.2126 15.9999C17.2126 14.4682 15.971 13.2266 14.4393 13.2266C12.9076 13.2266 11.666 14.4682 11.666 15.9999Z" fill="white"/>
</svg>
