<svg width="16" height="16" viewBox="0 0 16 16" fill="none" xmlns="http://www.w3.org/2000/svg">
<g clip-path="url(#clip0_10876_11302)">
<path d="M14.1051 6.22222H11.0473L11.6873 1.912C11.7469 1.50311 11.5202 1.11288 11.1345 0.963551C10.7496 0.815106 10.3185 0.949329 10.0882 1.29155L5.52557 8.04444C5.29446 8.38577 5.27135 8.824 5.46512 9.18755C5.65801 9.552 6.03401 9.77777 6.44646 9.77777H9.50335L8.86423 14.088C8.80468 14.4969 9.03135 14.8871 9.41712 15.0364C9.52201 15.0773 9.63046 15.0969 9.73712 15.0969C10.0216 15.0969 10.2953 14.9573 10.4633 14.7084L15.0251 7.95644C15.2562 7.61511 15.2793 7.17688 15.0856 6.81333C14.8927 6.44888 14.5167 6.22311 14.1042 6.22311L14.1051 6.22222ZM9.35846 13.9618C9.35846 13.9618 9.35846 13.9618 9.36023 13.9609L9.35846 13.9618Z" fill="#D6E2FB"/>
<path d="M4.22222 8.00001C4.22222 7.63201 3.92356 7.33334 3.55556 7.33334H0.666667C0.298667 7.33334 0 7.63201 0 8.00001C0 8.36801 0.298667 8.66668 0.666667 8.66668H3.55556C3.92356 8.66668 4.22222 8.36801 4.22222 8.00001Z" fill="#D6E2FB"/>
<path d="M4.66661 4.44446H2.88883C2.52083 4.44446 2.22217 4.74312 2.22217 5.11112C2.22217 5.47912 2.52083 5.77779 2.88883 5.77779H4.66661C5.03461 5.77779 5.33328 5.47912 5.33328 5.11112C5.33328 4.74312 5.03461 4.44446 4.66661 4.44446Z" fill="#D6E2FB"/>
<path d="M4.66661 10.2222H2.88883C2.52083 10.2222 2.22217 10.5209 2.22217 10.8889C2.22217 11.2569 2.52083 11.5556 2.88883 11.5556H4.66661C5.03461 11.5556 5.33328 11.2569 5.33328 10.8889C5.33328 10.5209 5.03461 10.2222 4.66661 10.2222Z" fill="#D6E2FB"/>
</g>
<defs>
<clipPath id="clip0_10876_11302">
<rect width="16" height="16" fill="white"/>
</clipPath>
</defs>
</svg>
