<svg width="16" height="16" viewBox="0 0 16 16" fill="none" xmlns="http://www.w3.org/2000/svg">
<path d="M13.609 4.98045L8.94148 1.43289C8.38859 1.01333 7.61525 1.01245 7.05881 1.43289L2.39125 4.98045C2.00725 5.27378 1.77881 5.73689 1.77881 6.21867V12.6667C1.77881 14.0151 2.87481 15.1111 4.22325 15.1111H11.7779C13.1264 15.1111 14.2224 14.0151 14.2224 12.6667V6.21867C14.2224 5.73689 13.993 5.27467 13.609 4.98045ZM10.9646 9.70756L9.38592 10.4969L8.59659 12.0756C8.4837 12.3013 8.25259 12.4444 8.00014 12.4444C7.7477 12.4444 7.51659 12.3013 7.4037 12.0756L6.61436 10.4969L5.0357 9.70756C4.80903 9.59467 4.66681 9.36356 4.66681 9.11111C4.66681 8.85867 4.80903 8.62756 5.0357 8.51467L6.61436 7.72533L7.4037 6.14667C7.62948 5.69511 8.37081 5.69511 8.59659 6.14667L9.38592 7.72533L10.9646 8.51467C11.1913 8.62756 11.3335 8.85867 11.3335 9.11111C11.3335 9.36356 11.1913 9.59467 10.9646 9.70756Z" fill="white"/>
</svg>
