<svg width="16" height="16" viewBox="0 0 16 16" fill="none" xmlns="http://www.w3.org/2000/svg">
<g clip-path="url(#clip0_10876_11312)">
<path d="M2.44439 11.1111H0.888835C0.520746 11.1111 0.222168 10.8125 0.222168 10.4444C0.222168 10.0763 0.520746 9.77777 0.888835 9.77777H2.44439C2.81248 9.77777 3.11106 10.0763 3.11106 10.4444C3.11106 10.8125 2.81248 11.1111 2.44439 11.1111Z" fill="#D6E2FB"/>
<path d="M15.1109 11.1111H13.5553C13.1872 11.1111 12.8887 10.8125 12.8887 10.4444C12.8887 10.0763 13.1872 9.77777 13.5553 9.77777H15.1109C15.479 9.77777 15.7776 10.0763 15.7776 10.4444C15.7776 10.8125 15.479 11.1111 15.1109 11.1111Z" fill="#D6E2FB"/>
<path d="M10 2C10 0.897156 9.1024 0 8 0C6.8976 0 6 0.897156 6 2C6 2.86782 6.5592 3.60116 7.33333 3.87716V6C7.33333 6.36809 7.63191 6.66667 8 6.66667C8.36809 6.66667 8.66667 6.36809 8.66667 6V3.87716C9.4408 3.60116 10 2.86782 10 2ZM8 2.66667C7.6328 2.66667 7.33333 2.36764 7.33333 2C7.33333 1.63236 7.6328 1.33333 8 1.33333C8.3672 1.33333 8.66667 1.63236 8.66667 2C8.66667 2.36764 8.3672 2.66667 8 2.66667Z" fill="#D6E2FB"/>
<path d="M11.7778 5.33334H4.22228C2.87419 5.33334 1.77783 6.4297 1.77783 7.77779V12.6667C1.77783 14.0148 2.87419 15.1111 4.22228 15.1111H11.7778C13.1259 15.1111 14.2223 14.0148 14.2223 12.6667V7.77779C14.2223 6.4297 13.1259 5.33334 11.7778 5.33334ZM4.88894 10.6667C4.39801 10.6667 4.00005 10.2686 4.00005 9.77779C4.00005 9.28694 4.39801 8.8889 4.88894 8.8889C5.37988 8.8889 5.77783 9.28694 5.77783 9.77779C5.77783 10.2686 5.37988 10.6667 4.88894 10.6667ZM8.00005 12.4445C7.26405 12.4445 6.66672 11.8472 6.66672 11.1111C6.66672 10.8659 6.86583 10.6667 7.11117 10.6667H8.88894C9.13428 10.6667 9.33339 10.8659 9.33339 11.1111C9.33339 11.8472 8.73605 12.4445 8.00005 12.4445ZM11.1112 10.6667C10.6202 10.6667 10.2223 10.2686 10.2223 9.77779C10.2223 9.28694 10.6202 8.8889 11.1112 8.8889C11.6021 8.8889 12.0001 9.28694 12.0001 9.77779C12.0001 10.2686 11.6021 10.6667 11.1112 10.6667Z" fill="#D6E2FB"/>
</g>
<defs>
<clipPath id="clip0_10876_11312">
<rect width="16" height="16" fill="white"/>
</clipPath>
</defs>
</svg>
