<svg width="16" height="16" viewBox="0 0 16 16" fill="none" xmlns="http://www.w3.org/2000/svg">
<g clip-path="url(#clip0_10894_21)">
<path d="M7.99995 5.33333C8.98179 5.33333 9.77772 4.53739 9.77772 3.55555C9.77772 2.57371 8.98179 1.77777 7.99995 1.77777C7.01811 1.77777 6.22217 2.57371 6.22217 3.55555C6.22217 4.53739 7.01811 5.33333 7.99995 5.33333Z" fill="#D6E2FB"/>
<path d="M11.5823 10L10.825 7.85511C10.481 6.87911 9.55562 6.224 8.52273 6.224H7.47651C6.44273 6.224 5.5174 6.88 5.1734 7.85511L4.41606 10C4.31473 10.288 4.33606 10.608 4.47651 10.8791C4.61606 11.1502 4.86495 11.3538 5.15829 11.4373L5.8054 11.6222L5.95029 14.0916C5.99917 14.912 6.68095 15.5556 7.50406 15.5556H8.4934C9.31651 15.5556 9.99829 14.912 10.0472 14.0916L10.1921 11.6231L10.8392 11.4382C11.1325 11.3538 11.3805 11.1502 11.521 10.88C11.6614 10.6089 11.6836 10.288 11.5814 10.0009L11.5823 10Z" fill="#D6E2FB"/>
<path d="M12.2221 4.00001C13.204 4.00001 13.9999 3.20408 13.9999 2.22224C13.9999 1.2404 13.204 0.444458 12.2221 0.444458C11.2403 0.444458 10.4443 1.2404 10.4443 2.22224C10.4443 3.20408 11.2403 4.00001 12.2221 4.00001Z" fill="#D6E2FB"/>
<path d="M3.77778 4.00001C4.75962 4.00001 5.55556 3.20408 5.55556 2.22224C5.55556 1.2404 4.75962 0.444458 3.77778 0.444458C2.79594 0.444458 2 1.2404 2 2.22224C2 3.20408 2.79594 4.00001 3.77778 4.00001Z" fill="#D6E2FB"/>
<path d="M4.62049 14.1707L4.52894 12.6275C3.99916 12.4071 3.55738 12.0035 3.29249 11.4907C2.98405 10.896 2.93605 10.1902 3.16005 9.55644L3.91738 7.41155C4.23827 6.50044 4.8916 5.77422 5.70849 5.33866C5.30583 5.05333 4.81694 4.88977 4.30049 4.88977H3.25427C2.22049 4.88977 1.29516 5.54577 0.951159 6.52088L0.195604 8.66666C0.0942705 8.95466 0.115604 9.27466 0.256048 9.54577C0.395604 9.81688 0.644493 10.0204 0.937826 10.104L1.58494 10.2889L1.72983 12.7582C1.77871 13.5787 2.46049 14.2222 3.2836 14.2222H4.27294C4.39383 14.2222 4.50938 14.2044 4.62227 14.1787C4.62227 14.176 4.62049 14.1733 4.62049 14.1707Z" fill="#D6E2FB"/>
<path d="M11.3795 14.1707L11.4711 12.6275C12.0008 12.4071 12.4426 12.0035 12.7075 11.4907C13.0159 10.896 13.0639 10.1902 12.8399 9.55644L12.0826 7.41155C11.7617 6.50044 11.1084 5.77421 10.2915 5.33866C10.6942 5.05333 11.1831 4.88977 11.6995 4.88977H12.7457C13.7795 4.88977 14.7048 5.54577 15.0488 6.52088L15.8062 8.66577C15.9075 8.95377 15.8862 9.27377 15.7457 9.54488C15.6062 9.81599 15.3573 10.0195 15.0639 10.1031L14.4168 10.288L14.2719 12.7573C14.2231 13.5778 13.5413 14.2213 12.7182 14.2213H11.7288C11.6079 14.2213 11.4924 14.2035 11.3795 14.1778C11.3795 14.1751 11.3804 14.1724 11.3804 14.1698L11.3795 14.1707Z" fill="#D6E2FB"/>
</g>
<defs>
<clipPath id="clip0_10894_21">
<rect width="16" height="16" fill="white"/>
</clipPath>
</defs>
</svg>
