<svg width="24" height="24" viewBox="0 0 24 24" fill="none" xmlns="http://www.w3.org/2000/svg">
<path d="M14.9602 12.04C15.1549 12.2347 15.4109 12.3333 15.6669 12.3333C15.9229 12.3333 16.1789 12.236 16.3735 12.04C16.7642 11.6493 16.7642 11.016 16.3735 10.6253L12.7069 6.95866C12.3162 6.568 11.6829 6.568 11.2922 6.95866L7.62552 10.6253C7.23485 11.016 7.23485 11.6493 7.62552 12.04C8.01619 12.4307 8.64952 12.4307 9.04019 12.04L11.0002 10.08V16.9987C11.0002 17.5507 11.4482 17.9987 12.0002 17.9987C12.5522 17.9987 13.0002 17.5507 13.0002 16.9987V10.0813L14.9602 12.0413V12.04Z" fill="url(#paint0_linear_10851_45213)"/>
<path d="M3.6665 10C4.2185 10 4.6665 9.552 4.6665 9V6.33334C4.6665 5.41467 5.4145 4.66667 6.33317 4.66667H8.99984C9.55184 4.66667 9.99984 4.21867 9.99984 3.66667C9.99984 3.11467 9.55184 2.66667 8.99984 2.66667H6.33317C4.3105 2.66667 2.6665 4.31067 2.6665 6.33334V9C2.6665 9.552 3.1145 10 3.6665 10Z" fill="url(#paint1_linear_10851_45213)"/>
<path d="M17.6667 2.66667H15C14.448 2.66667 14 3.11467 14 3.66667C14 4.21867 14.448 4.66667 15 4.66667H17.6667C18.5853 4.66667 19.3333 5.41467 19.3333 6.33334V9C19.3333 9.552 19.7813 10 20.3333 10C20.8853 10 21.3333 9.552 21.3333 9V6.33334C21.3333 4.31067 19.6893 2.66667 17.6667 2.66667Z" fill="url(#paint2_linear_10851_45213)"/>
<path d="M20.3333 14C19.7813 14 19.3333 14.448 19.3333 15V17.6667C19.3333 18.5853 18.5853 19.3333 17.6667 19.3333H15C14.448 19.3333 14 19.7813 14 20.3333C14 20.8853 14.448 21.3333 15 21.3333H17.6667C19.6893 21.3333 21.3333 19.6893 21.3333 17.6667V15C21.3333 14.448 20.8853 14 20.3333 14Z" fill="url(#paint3_linear_10851_45213)"/>
<path d="M8.99984 19.3333H6.33317C5.4145 19.3333 4.6665 18.5853 4.6665 17.6667V15C4.6665 14.448 4.2185 14 3.6665 14C3.1145 14 2.6665 14.448 2.6665 15V17.6667C2.6665 19.6893 4.3105 21.3333 6.33317 21.3333H8.99984C9.55184 21.3333 9.99984 20.8853 9.99984 20.3333C9.99984 19.7813 9.55184 19.3333 8.99984 19.3333Z" fill="url(#paint4_linear_10851_45213)"/>
<defs>
<linearGradient id="paint0_linear_10851_45213" x1="11.9995" y1="6.66566" x2="11.9995" y2="17.9987" gradientUnits="userSpaceOnUse">
<stop stop-color="#588FFE"/>
<stop offset="1" stop-color="#2E74FF"/>
</linearGradient>
<linearGradient id="paint1_linear_10851_45213" x1="6.33317" y1="2.66667" x2="6.33317" y2="10" gradientUnits="userSpaceOnUse">
<stop stop-color="#588FFE"/>
<stop offset="1" stop-color="#2E74FF"/>
</linearGradient>
<linearGradient id="paint2_linear_10851_45213" x1="17.6667" y1="2.66667" x2="17.6667" y2="10" gradientUnits="userSpaceOnUse">
<stop stop-color="#588FFE"/>
<stop offset="1" stop-color="#2E74FF"/>
</linearGradient>
<linearGradient id="paint3_linear_10851_45213" x1="17.6667" y1="14" x2="17.6667" y2="21.3333" gradientUnits="userSpaceOnUse">
<stop stop-color="#588FFE"/>
<stop offset="1" stop-color="#2E74FF"/>
</linearGradient>
<linearGradient id="paint4_linear_10851_45213" x1="6.33317" y1="14" x2="6.33317" y2="21.3333" gradientUnits="userSpaceOnUse">
<stop stop-color="#588FFE"/>
<stop offset="1" stop-color="#2E74FF"/>
</linearGradient>
</defs>
</svg>
