<svg width="24" height="24" viewBox="0 0 24 24" fill="none" xmlns="http://www.w3.org/2000/svg">
<path d="M3.73498 16.9973C3.24832 16.9973 2.82032 16.64 2.74698 16.144L1.37365 6.91199C1.22965 5.94265 1.47098 4.97599 2.05498 4.18932C2.63765 3.40265 3.49232 2.88932 4.46165 2.74532L13.6936 1.37332C15.3723 1.12399 16.9963 2.04932 17.6323 3.62532C17.839 4.13732 17.5923 4.71999 17.079 4.92665C16.5683 5.13465 15.9856 4.88665 15.7776 4.37332C15.4883 3.65732 14.7523 3.23465 13.987 3.35065L4.75498 4.72399C4.31498 4.78932 3.92565 5.02265 3.66165 5.37999C3.39632 5.73732 3.28698 6.17732 3.35365 6.61732L4.72565 15.8493C4.80698 16.396 4.42832 16.9053 3.88298 16.9853C3.83365 16.9933 3.78432 16.996 3.73498 16.996V16.9973Z" fill="url(#paint0_linear_10851_35884)"/>
<path d="M19 6H9.66667C7.644 6 6 7.644 6 9.66667V19C6 21.0227 7.644 22.6667 9.66667 22.6667H19C21.0227 22.6667 22.6667 21.0227 22.6667 19V9.66667C22.6667 7.644 21.0227 6 19 6ZM17.6667 15.3333H15.3333V17.6667C15.3333 18.2187 14.8853 18.6667 14.3333 18.6667C13.7813 18.6667 13.3333 18.2187 13.3333 17.6667V15.3333H11C10.448 15.3333 10 14.8853 10 14.3333C10 13.7813 10.448 13.3333 11 13.3333H13.3333V11C13.3333 10.448 13.7813 10 14.3333 10C14.8853 10 15.3333 10.448 15.3333 11V13.3333H17.6667C18.2187 13.3333 18.6667 13.7813 18.6667 14.3333C18.6667 14.8853 18.2187 15.3333 17.6667 15.3333Z" fill="url(#paint1_linear_10851_35884)"/>
<defs>
<linearGradient id="paint0_linear_10851_35884" x1="9.51918" y1="1.33298" x2="9.51918" y2="16.9973" gradientUnits="userSpaceOnUse">
<stop stop-color="#588FFE"/>
<stop offset="1" stop-color="#2E74FF"/>
</linearGradient>
<linearGradient id="paint1_linear_10851_35884" x1="14.3333" y1="6" x2="14.3333" y2="22.6667" gradientUnits="userSpaceOnUse">
<stop stop-color="#588FFE"/>
<stop offset="1" stop-color="#2E74FF"/>
</linearGradient>
</defs>
</svg>
