<svg width="24" height="24" viewBox="0 0 24 24" fill="none" xmlns="http://www.w3.org/2000/svg">
<path d="M3.66683 16.6667H1.3335C0.781363 16.6667 0.333496 16.2188 0.333496 15.6667C0.333496 15.1145 0.781363 14.6667 1.3335 14.6667H3.66683C4.21896 14.6667 4.66683 15.1145 4.66683 15.6667C4.66683 16.2188 4.21896 16.6667 3.66683 16.6667Z" fill="url(#paint0_linear_10851_45255)"/>
<path d="M22.6668 16.6667H20.3335C19.7814 16.6667 19.3335 16.2188 19.3335 15.6667C19.3335 15.1145 19.7814 14.6667 20.3335 14.6667H22.6668C23.219 14.6667 23.6668 15.1145 23.6668 15.6667C23.6668 16.2188 23.219 16.6667 22.6668 16.6667Z" fill="url(#paint1_linear_10851_45255)"/>
<path d="M15 3C15 1.34573 13.6536 0 12 0C10.3464 0 9 1.34573 9 3C9 4.30173 9.8388 5.40173 11 5.81573V9C11 9.55213 11.4479 10 12 10C12.5521 10 13 9.55213 13 9V5.81573C14.1612 5.40173 15 4.30173 15 3ZM12 4C11.4492 4 11 3.55147 11 3C11 2.44853 11.4492 2 12 2C12.5508 2 13 2.44853 13 3C13 3.55147 12.5508 4 12 4Z" fill="url(#paint2_linear_10851_45255)"/>
<path d="M17.667 8H6.33366C4.31153 8 2.66699 9.64453 2.66699 11.6667V19C2.66699 21.0221 4.31153 22.6667 6.33366 22.6667H17.667C19.6891 22.6667 21.3337 21.0221 21.3337 19V11.6667C21.3337 9.64453 19.6891 8 17.667 8ZM7.33366 16C6.59726 16 6.00033 15.4029 6.00033 14.6667C6.00033 13.9304 6.59726 13.3333 7.33366 13.3333C8.07006 13.3333 8.66699 13.9304 8.66699 14.6667C8.66699 15.4029 8.07006 16 7.33366 16ZM12.0003 18.6667C10.8963 18.6667 10.0003 17.7708 10.0003 16.6667C10.0003 16.2988 10.299 16 10.667 16H13.3337C13.7017 16 14.0003 16.2988 14.0003 16.6667C14.0003 17.7708 13.1043 18.6667 12.0003 18.6667ZM16.667 16C15.9306 16 15.3337 15.4029 15.3337 14.6667C15.3337 13.9304 15.9306 13.3333 16.667 13.3333C17.4034 13.3333 18.0003 13.9304 18.0003 14.6667C18.0003 15.4029 17.4034 16 16.667 16Z" fill="url(#paint3_linear_10851_45255)"/>
<defs>
<linearGradient id="paint0_linear_10851_45255" x1="2.50016" y1="14.6667" x2="2.50016" y2="16.6667" gradientUnits="userSpaceOnUse">
<stop stop-color="#588FFE"/>
<stop offset="1" stop-color="#2E74FF"/>
</linearGradient>
<linearGradient id="paint1_linear_10851_45255" x1="21.5002" y1="14.6667" x2="21.5002" y2="16.6667" gradientUnits="userSpaceOnUse">
<stop stop-color="#588FFE"/>
<stop offset="1" stop-color="#2E74FF"/>
</linearGradient>
<linearGradient id="paint2_linear_10851_45255" x1="12" y1="0" x2="12" y2="10" gradientUnits="userSpaceOnUse">
<stop stop-color="#588FFE"/>
<stop offset="1" stop-color="#2E74FF"/>
</linearGradient>
<linearGradient id="paint3_linear_10851_45255" x1="12.0003" y1="8" x2="12.0003" y2="22.6667" gradientUnits="userSpaceOnUse">
<stop stop-color="#588FFE"/>
<stop offset="1" stop-color="#2E74FF"/>
</linearGradient>
</defs>
</svg>
