<svg width="24" height="24" viewBox="0 0 24 24" fill="none" xmlns="http://www.w3.org/2000/svg">
<g clip-path="url(#clip0_10851_45201)">
<path d="M11.9997 7.99999C13.4724 7.99999 14.6663 6.80608 14.6663 5.33332C14.6663 3.86056 13.4724 2.66666 11.9997 2.66666C10.5269 2.66666 9.33301 3.86056 9.33301 5.33332C9.33301 6.80608 10.5269 7.99999 11.9997 7.99999Z" fill="url(#paint0_linear_10851_45201)"/>
<path d="M17.3732 15L16.2372 11.7827C15.7212 10.3187 14.3332 9.336 12.7839 9.336H11.2145C9.66385 9.336 8.27585 10.32 7.75985 11.7827L6.62385 15C6.47185 15.432 6.50385 15.912 6.71452 16.3187C6.92385 16.7253 7.29718 17.0307 7.73718 17.156L8.70785 17.4333L8.92518 21.1373C8.99852 22.368 10.0212 23.3333 11.2559 23.3333H12.7399C13.9745 23.3333 14.9972 22.368 15.0705 21.1373L15.2878 17.4347L16.2585 17.1573C16.6985 17.0307 17.0705 16.7253 17.2812 16.32C17.4919 15.9133 17.5252 15.432 17.3719 15.0013L17.3732 15Z" fill="url(#paint1_linear_10851_45201)"/>
<path d="M18.3337 5.99999C19.8064 5.99999 21.0003 4.80608 21.0003 3.33332C21.0003 1.86056 19.8064 0.666656 18.3337 0.666656C16.8609 0.666656 15.667 1.86056 15.667 3.33332C15.667 4.80608 16.8609 5.99999 18.3337 5.99999Z" fill="url(#paint2_linear_10851_45201)"/>
<path d="M5.66667 5.99999C7.13943 5.99999 8.33333 4.80608 8.33333 3.33332C8.33333 1.86056 7.13943 0.666656 5.66667 0.666656C4.19391 0.666656 3 1.86056 3 3.33332C3 4.80608 4.19391 5.99999 5.66667 5.99999Z" fill="url(#paint3_linear_10851_45201)"/>
<path d="M6.93111 21.256L6.79377 18.9413C5.99911 18.6107 5.33644 18.0053 4.93911 17.236C4.47644 16.344 4.40444 15.2853 4.74044 14.3347L5.87644 11.1173C6.35777 9.75066 7.33777 8.66132 8.56311 8.00799C7.95911 7.57999 7.22577 7.33466 6.45111 7.33466H4.88177C3.33111 7.33466 1.94311 8.31866 1.42711 9.78132L0.293772 13C0.141772 13.432 0.173772 13.912 0.384439 14.3187C0.593772 14.7253 0.967105 15.0307 1.40711 15.156L2.37777 15.4333L2.59511 19.1373C2.66844 20.368 3.69111 21.3333 4.92577 21.3333H6.40977C6.59111 21.3333 6.76444 21.3067 6.93377 21.268C6.93377 21.264 6.93111 21.26 6.93111 21.256Z" fill="url(#paint4_linear_10851_45201)"/>
<path d="M17.0695 21.256L17.2068 18.9413C18.0015 18.6107 18.6642 18.0053 19.0615 17.236C19.5242 16.344 19.5962 15.2853 19.2602 14.3347L18.1242 11.1173C17.6428 9.75066 16.6628 8.66132 15.4375 8.00799C16.0415 7.57999 16.7748 7.33466 17.5495 7.33466H19.1188C20.6695 7.33466 22.0575 8.31866 22.5735 9.78132L23.7095 12.9987C23.8615 13.4307 23.8295 13.9107 23.6188 14.3173C23.4095 14.724 23.0362 15.0293 22.5962 15.1547L21.6255 15.432L21.4082 19.136C21.3348 20.3667 20.3122 21.332 19.0775 21.332H17.5935C17.4122 21.332 17.2388 21.3053 17.0695 21.2667C17.0695 21.2627 17.0708 21.2587 17.0708 21.2547L17.0695 21.256Z" fill="url(#paint5_linear_10851_45201)"/>
</g>
<defs>
<linearGradient id="paint0_linear_10851_45201" x1="11.9997" y1="2.66666" x2="11.9997" y2="7.99999" gradientUnits="userSpaceOnUse">
<stop stop-color="#588FFE"/>
<stop offset="1" stop-color="#2E74FF"/>
</linearGradient>
<linearGradient id="paint1_linear_10851_45201" x1="11.9981" y1="9.336" x2="11.9981" y2="23.3333" gradientUnits="userSpaceOnUse">
<stop stop-color="#588FFE"/>
<stop offset="1" stop-color="#2E74FF"/>
</linearGradient>
<linearGradient id="paint2_linear_10851_45201" x1="18.3337" y1="0.666656" x2="18.3337" y2="5.99999" gradientUnits="userSpaceOnUse">
<stop stop-color="#588FFE"/>
<stop offset="1" stop-color="#2E74FF"/>
</linearGradient>
<linearGradient id="paint3_linear_10851_45201" x1="5.66667" y1="0.666656" x2="5.66667" y2="5.99999" gradientUnits="userSpaceOnUse">
<stop stop-color="#588FFE"/>
<stop offset="1" stop-color="#2E74FF"/>
</linearGradient>
<linearGradient id="paint4_linear_10851_45201" x1="4.38116" y1="7.33466" x2="4.38116" y2="21.3333" gradientUnits="userSpaceOnUse">
<stop stop-color="#588FFE"/>
<stop offset="1" stop-color="#2E74FF"/>
</linearGradient>
<linearGradient id="paint5_linear_10851_45201" x1="19.6208" y1="7.33466" x2="19.6208" y2="21.332" gradientUnits="userSpaceOnUse">
<stop stop-color="#588FFE"/>
<stop offset="1" stop-color="#2E74FF"/>
</linearGradient>
<clipPath id="clip0_10851_45201">
<rect width="24" height="24" fill="white"/>
</clipPath>
</defs>
</svg>
